<svg width="82" height="77" viewBox="0 0 82 77" fill="none" xmlns="http://www.w3.org/2000/svg">
<path d="M40.2891 33.9889C40.2904 33.9881 45.6611 30.8874 48.7203 29.1211C48.9922 28.9642 49.3201 28.945 49.6091 29.0677L58.4577 32.8221C58.8772 33 59.1233 33.4391 59.0562 33.8898L55.1987 59.8132" stroke="black" stroke-linecap="round"/>
<path d="M55.3823 59.3482C55.6392 59.4495 55.7652 59.7399 55.6638 59.9968C55.5625 60.2537 55.2721 60.3797 55.0152 60.2783L55.3823 59.3482ZM30.1942 49.14L30.6905 49.201L30.1942 49.14ZM30.8196 50.1922L30.6361 50.6573L30.8196 50.1922ZM40.5391 34.4219C40.5391 34.4219 40.539 34.4219 40.539 34.422C40.5389 34.422 40.5389 34.422 40.5388 34.4221C40.5387 34.4221 40.5386 34.4222 40.5385 34.4223C40.5384 34.4223 40.5382 34.4224 40.5381 34.4225C40.5379 34.4226 40.5377 34.4227 40.5375 34.4228C40.5373 34.423 40.5371 34.4231 40.5368 34.4232C40.5366 34.4234 40.5363 34.4235 40.536 34.4237C40.5357 34.4239 40.5354 34.424 40.5351 34.4242C40.5348 34.4244 40.5344 34.4246 40.5341 34.4248C40.5337 34.425 40.5333 34.4253 40.5329 34.4255C40.5325 34.4257 40.5321 34.426 40.5316 34.4262C40.5312 34.4265 40.5307 34.4268 40.5302 34.427C40.5297 34.4273 40.5292 34.4276 40.5287 34.4279C40.5282 34.4282 40.5276 34.4285 40.5271 34.4289C40.5265 34.4292 40.5259 34.4295 40.5253 34.4299C40.5247 34.4302 40.5241 34.4306 40.5234 34.431C40.5228 34.4313 40.5221 34.4317 40.5215 34.4321C40.5208 34.4325 40.5201 34.4329 40.5193 34.4333C40.5186 34.4337 40.5179 34.4342 40.5171 34.4346C40.5164 34.435 40.5156 34.4355 40.5148 34.436C40.514 34.4364 40.5132 34.4369 40.5123 34.4374C40.5115 34.4379 40.5106 34.4383 40.5098 34.4389C40.5089 34.4394 40.508 34.4399 40.5071 34.4404C40.5062 34.4409 40.5052 34.4415 40.5043 34.442C40.5033 34.4426 40.5023 34.4431 40.5014 34.4437C40.5004 34.4443 40.4994 34.4449 40.4983 34.4455C40.4973 34.446 40.4962 34.4467 40.4952 34.4473C40.4941 34.4479 40.493 34.4485 40.4919 34.4492C40.4908 34.4498 40.4897 34.4504 40.4886 34.4511C40.4874 34.4518 40.4862 34.4524 40.4851 34.4531C40.4839 34.4538 40.4827 34.4545 40.4815 34.4552C40.4803 34.4559 40.479 34.4566 40.4778 34.4573C40.4765 34.4581 40.4752 34.4588 40.4739 34.4595C40.4726 34.4603 40.4713 34.461 40.47 34.4618C40.4687 34.4626 40.4673 34.4633 40.466 34.4641C40.4646 34.4649 40.4632 34.4657 40.4618 34.4665C40.4604 34.4673 40.459 34.4682 40.4575 34.469C40.4561 34.4698 40.4546 34.4707 40.4532 34.4715C40.4517 34.4724 40.4502 34.4732 40.4487 34.4741C40.4472 34.475 40.4456 34.4759 40.4441 34.4768C40.4425 34.4777 40.441 34.4786 40.4394 34.4795C40.4378 34.4804 40.4362 34.4813 40.4346 34.4823C40.433 34.4832 40.4313 34.4841 40.4297 34.4851C40.428 34.4861 40.4263 34.487 40.4246 34.488C40.4229 34.489 40.4212 34.49 40.4195 34.491C40.4178 34.492 40.416 34.493 40.4142 34.494C40.4125 34.495 40.4107 34.496 40.4089 34.4971C40.4071 34.4981 40.4053 34.4992 40.4034 34.5002C40.4016 34.5013 40.3997 34.5024 40.3979 34.5035C40.396 34.5045 40.3941 34.5056 40.3922 34.5067C40.3903 34.5078 40.3884 34.5089 40.3864 34.5101C40.3845 34.5112 40.3825 34.5123 40.3805 34.5135C40.3786 34.5146 40.3766 34.5157 40.3746 34.5169C40.3725 34.5181 40.3705 34.5192 40.3685 34.5204C40.3664 34.5216 40.3644 34.5228 40.3623 34.524C40.3602 34.5252 40.3581 34.5264 40.356 34.5276C40.3539 34.5289 40.3517 34.5301 40.3496 34.5313C40.3474 34.5326 40.3452 34.5338 40.3431 34.5351C40.3409 34.5364 40.3387 34.5376 40.3365 34.5389C40.3342 34.5402 40.332 34.5415 40.3297 34.5428C40.3275 34.5441 40.3252 34.5454 40.3229 34.5467C40.3206 34.548 40.3183 34.5494 40.316 34.5507C40.3137 34.5521 40.3113 34.5534 40.309 34.5548C40.3066 34.5561 40.3043 34.5575 40.3019 34.5589C40.2995 34.5603 40.2971 34.5616 40.2946 34.563C40.2922 34.5644 40.2898 34.5659 40.2873 34.5673C40.2849 34.5687 40.2824 34.5701 40.2799 34.5716C40.2774 34.573 40.2749 34.5744 40.2724 34.5759C40.2699 34.5774 40.2673 34.5788 40.2648 34.5803C40.2622 34.5818 40.2596 34.5833 40.257 34.5848C40.2545 34.5863 40.2519 34.5878 40.2492 34.5893C40.2466 34.5908 40.244 34.5923 40.2413 34.5938C40.2387 34.5954 40.236 34.5969 40.2333 34.5985C40.2306 34.6 40.2279 34.6016 40.2252 34.6032C40.2225 34.6047 40.2197 34.6063 40.217 34.6079C40.2142 34.6095 40.2114 34.6111 40.2087 34.6127C40.2059 34.6143 40.2031 34.6159 40.2003 34.6175C40.1974 34.6192 40.1946 34.6208 40.1918 34.6225C40.1889 34.6241 40.186 34.6258 40.1832 34.6274C40.1803 34.6291 40.1774 34.6308 40.1745 34.6324C40.1716 34.6341 40.1686 34.6358 40.1657 34.6375C40.1627 34.6392 40.1598 34.6409 40.1568 34.6426C40.1538 34.6444 40.1508 34.6461 40.1478 34.6478C40.1448 34.6496 40.1418 34.6513 40.1387 34.6531C40.1357 34.6548 40.1327 34.6566 40.1296 34.6584C40.1265 34.6601 40.1234 34.6619 40.1203 34.6637C40.1172 34.6655 40.1141 34.6673 40.111 34.6691C40.1078 34.6709 40.1047 34.6727 40.1015 34.6746C40.0984 34.6764 40.0952 34.6782 40.092 34.6801C40.0888 34.6819 40.0856 34.6838 40.0823 34.6856C40.0791 34.6875 40.0759 34.6894 40.0726 34.6912C40.0694 34.6931 40.0661 34.695 40.0628 34.6969C40.0595 34.6988 40.0562 34.7007 40.0529 34.7026C40.0496 34.7045 40.0463 34.7065 40.0429 34.7084C40.0396 34.7103 40.0362 34.7123 40.0328 34.7142C40.0294 34.7162 40.026 34.7181 40.0226 34.7201C40.0192 34.7221 40.0158 34.724 40.0124 34.726C40.0089 34.728 40.0055 34.73 40.002 34.732C39.9985 34.734 39.9951 34.736 39.9916 34.738C39.9881 34.7401 39.9846 34.7421 39.981 34.7441C39.9775 34.7462 39.974 34.7482 39.9704 34.7503C39.9668 34.7523 39.9633 34.7544 39.9597 34.7564C39.9561 34.7585 39.9525 34.7606 39.9489 34.7627C39.9453 34.7648 39.9416 34.7669 39.938 34.769C39.9344 34.7711 39.9307 34.7732 39.927 34.7753C39.9234 34.7774 39.9197 34.7795 39.916 34.7817C39.9123 34.7838 39.9085 34.786 39.9048 34.7881C39.9011 34.7903 39.8973 34.7924 39.8936 34.7946C39.8898 34.7968 39.886 34.799 39.8823 34.8011C39.8785 34.8033 39.8747 34.8055 39.8709 34.8077C39.867 34.8099 39.8632 34.8121 39.8594 34.8144C39.8555 34.8166 39.8517 34.8188 39.8478 34.821C39.8439 34.8233 39.84 34.8255 39.8361 34.8278C39.8322 34.83 39.8283 34.8323 39.8244 34.8346C39.8204 34.8368 39.8165 34.8391 39.8126 34.8414C39.8086 34.8437 39.8046 34.846 39.8006 34.8483C39.7967 34.8506 39.7927 34.8529 39.7886 34.8552C39.7846 34.8575 39.7806 34.8598 39.7766 34.8622C39.7725 34.8645 39.7685 34.8668 39.7644 34.8692C39.7603 34.8715 39.7563 34.8739 39.7522 34.8763C39.7481 34.8786 39.744 34.881 39.7398 34.8834C39.7357 34.8857 39.7316 34.8881 39.7274 34.8905C39.7233 34.8929 39.7191 34.8953 39.7149 34.8977C39.7108 34.9001 39.7066 34.9026 39.7024 34.905C39.6982 34.9074 39.694 34.9099 39.6897 34.9123C39.6855 34.9147 39.6813 34.9172 39.677 34.9196C39.6728 34.9221 39.6685 34.9246 39.6642 34.927C39.6599 34.9295 39.6556 34.932 39.6513 34.9345C39.647 34.937 39.6427 34.9395 39.6383 34.942C39.634 34.9445 39.6297 34.947 39.6253 34.9495C39.6209 34.952 39.6166 34.9545 39.6122 34.9571C39.6078 34.9596 39.6034 34.9621 39.599 34.9647C39.5946 34.9672 39.5901 34.9698 39.5857 34.9724C39.5813 34.9749 39.5768 34.9775 39.5724 34.9801C39.5679 34.9826 39.5634 34.9852 39.5589 34.9878C39.5544 34.9904 39.5499 34.993 39.5454 34.9956C39.5409 34.9982 39.5364 35.0008 39.5318 35.0035C39.5273 35.0061 39.5227 35.0087 39.5182 35.0113C39.5136 35.014 39.509 35.0166 39.5044 35.0193C39.4998 35.0219 39.4952 35.0246 39.4906 35.0273C39.486 35.0299 39.4814 35.0326 39.4767 35.0353C39.4721 35.0379 39.4674 35.0406 39.4628 35.0433C39.4581 35.046 39.4534 35.0487 39.4487 35.0514C39.4441 35.0541 39.4394 35.0569 39.4346 35.0596C39.4299 35.0623 39.4252 35.065 39.4205 35.0678C39.4157 35.0705 39.411 35.0732 39.4062 35.076C39.4014 35.0787 39.3967 35.0815 39.3919 35.0843C39.3871 35.087 39.3823 35.0898 39.3775 35.0926C39.3727 35.0954 39.3678 35.0981 39.363 35.1009C39.3582 35.1037 39.3533 35.1065 39.3485 35.1093C39.3436 35.1121 39.3387 35.1149 39.3338 35.1178C39.329 35.1206 39.3241 35.1234 39.3192 35.1262C39.3142 35.1291 39.3093 35.1319 39.3044 35.1348C39.2995 35.1376 39.2945 35.1405 39.2896 35.1433C39.2846 35.1462 39.2797 35.1491 39.2747 35.1519C39.2697 35.1548 39.2647 35.1577 39.2597 35.1606C39.2547 35.1635 39.2497 35.1664 39.2447 35.1693C39.2397 35.1722 39.2346 35.1751 39.2296 35.178C39.2245 35.1809 39.2195 35.1838 39.2144 35.1867C39.2093 35.1897 39.2042 35.1926 39.1992 35.1955C39.1941 35.1985 39.189 35.2014 39.1838 35.2044C39.1787 35.2073 39.1736 35.2103 39.1685 35.2132C39.1633 35.2162 39.1582 35.2192 39.153 35.2222C39.1479 35.2251 39.1427 35.2281 39.1375 35.2311C39.1323 35.2341 39.1271 35.2371 39.1219 35.2401C39.1167 35.2431 39.1115 35.2461 39.1063 35.2491C39.1011 35.2522 39.0958 35.2552 39.0906 35.2582C39.0853 35.2612 39.0801 35.2643 39.0748 35.2673C39.0695 35.2704 39.0643 35.2734 39.059 35.2765C39.0537 35.2795 39.0484 35.2826 39.0431 35.2857C39.0377 35.2887 39.0324 35.2918 39.0271 35.2949C39.0217 35.298 39.0164 35.301 39.011 35.3041C39.0057 35.3072 39.0003 35.3103 38.9949 35.3134C38.9896 35.3165 38.9842 35.3196 38.9788 35.3228C38.9734 35.3259 38.968 35.329 38.9626 35.3321C38.9571 35.3353 38.9517 35.3384 38.9463 35.3415C38.9408 35.3447 38.9354 35.3478 38.9299 35.351C38.9245 35.3541 38.919 35.3573 38.9135 35.3604C38.908 35.3636 38.9025 35.3668 38.897 35.37C38.8915 35.3731 38.886 35.3763 38.8805 35.3795C38.875 35.3827 38.8694 35.3859 38.8639 35.3891C38.8584 35.3923 38.8528 35.3955 38.8472 35.3987C38.8417 35.4019 38.8361 35.4051 38.8305 35.4084C38.8249 35.4116 38.8194 35.4148 38.8137 35.418C38.8081 35.4213 38.8025 35.4245 38.7969 35.4278C38.7913 35.431 38.7857 35.4343 38.78 35.4375C38.7744 35.4408 38.7687 35.444 38.7631 35.4473C38.7574 35.4506 38.7517 35.4539 38.746 35.4571C38.7404 35.4604 38.7347 35.4637 38.729 35.467C38.7233 35.4703 38.7176 35.4736 38.7118 35.4769C38.7061 35.4802 38.7004 35.4835 38.6947 35.4868C38.6889 35.4901 38.6832 35.4934 38.6774 35.4968C38.6716 35.5001 38.6659 35.5034 38.6601 35.5068C38.6543 35.5101 38.6485 35.5134 38.6427 35.5168C38.6369 35.5201 38.6311 35.5235 38.6253 35.5268C38.6195 35.5302 38.6137 35.5336 38.6079 35.5369C38.602 35.5403 38.5962 35.5437 38.5903 35.547C38.5845 35.5504 38.5786 35.5538 38.5727 35.5572C38.5669 35.5606 38.561 35.564 38.5551 35.5674C38.5492 35.5708 38.5433 35.5742 38.5374 35.5776C38.5315 35.581 38.5256 35.5844 38.5197 35.5878C38.5137 35.5913 38.5078 35.5947 38.5019 35.5981C38.4959 35.6015 38.49 35.605 38.484 35.6084C38.4781 35.6119 38.4721 35.6153 38.4661 35.6188C38.4601 35.6222 38.4541 35.6257 38.4481 35.6291C38.4421 35.6326 38.4361 35.6361 38.4301 35.6395C38.4241 35.643 38.4181 35.6465 38.4121 35.65C38.406 35.6534 38.4 35.6569 38.3939 35.6604C38.3879 35.6639 38.3818 35.6674 38.3758 35.6709C38.3697 35.6744 38.3636 35.6779 38.3576 35.6814C38.3515 35.6849 38.3454 35.6885 38.3393 35.692C38.3332 35.6955 38.3271 35.699 38.321 35.7026C38.3149 35.7061 38.3087 35.7096 38.3026 35.7132C38.2965 35.7167 38.2903 35.7202 38.2842 35.7238C38.278 35.7273 38.2719 35.7309 38.2657 35.7345C38.2595 35.738 38.2534 35.7416 38.2472 35.7451C38.241 35.7487 38.2348 35.7523 38.2286 35.7559C38.2224 35.7594 38.2162 35.763 38.21 35.7666C38.2038 35.7702 38.1976 35.7738 38.1913 35.7774C38.1851 35.781 38.1789 35.7846 38.1726 35.7882C38.1664 35.7918 38.1601 35.7954 38.1539 35.799C38.1476 35.8026 38.1413 35.8063 38.1351 35.8099C38.1288 35.8135 38.1225 35.8171 38.1162 35.8208C38.1099 35.8244 38.1036 35.828 38.0973 35.8317C38.091 35.8353 38.0847 35.839 38.0784 35.8426C38.072 35.8463 38.0657 35.8499 38.0594 35.8536C38.053 35.8572 38.0467 35.8609 38.0403 35.8646C38.034 35.8682 38.0276 35.8719 38.0213 35.8756C38.0149 35.8793 38.0085 35.8829 38.0021 35.8866C37.9958 35.8903 37.9894 35.894 37.983 35.8977C37.9766 35.9014 37.9702 35.9051 37.9638 35.9088C37.9573 35.9125 37.9509 35.9162 37.9445 35.9199C37.9381 35.9236 37.9316 35.9273 37.9252 35.931C37.9188 35.9348 37.9123 35.9385 37.9059 35.9422C37.8994 35.9459 37.8929 35.9497 37.8865 35.9534C37.88 35.9571 37.8735 35.9609 37.867 35.9646C37.8606 35.9684 37.8541 35.9721 37.8476 35.9759C37.8411 35.9796 37.8346 35.9834 37.8281 35.9871C37.8215 35.9909 37.815 35.9947 37.8085 35.9984C37.802 36.0022 37.7955 36.006 37.7889 36.0097C37.7824 36.0135 37.7758 36.0173 37.7693 36.0211C37.7627 36.0249 37.7562 36.0286 37.7496 36.0324C37.743 36.0362 37.7365 36.04 37.7299 36.0438C37.7233 36.0476 37.7167 36.0514 37.7101 36.0552C37.7035 36.059 37.6969 36.0628 37.6903 36.0666C37.6837 36.0705 37.6771 36.0743 37.6705 36.0781C37.6639 36.0819 37.6573 36.0857 37.6506 36.0896C37.644 36.0934 37.6374 36.0972 37.6307 36.1011C37.6241 36.1049 37.6174 36.1087 37.6108 36.1126C37.6041 36.1164 37.5975 36.1203 37.5908 36.1241C37.5841 36.128 37.5775 36.1318 37.5708 36.1357C37.5641 36.1395 37.5574 36.1434 37.5507 36.1472C37.544 36.1511 37.5373 36.155 37.5306 36.1588C37.5239 36.1627 37.5172 36.1666 37.5105 36.1705C37.5038 36.1743 37.4971 36.1782 37.4903 36.1821C37.4836 36.186 37.4769 36.1899 37.4701 36.1938C37.4634 36.1977 37.4567 36.2016 37.4499 36.2055C37.4432 36.2094 37.4364 36.2133 37.4296 36.2172C37.4229 36.2211 37.4161 36.225 37.4093 36.2289C37.4026 36.2328 37.3958 36.2367 37.389 36.2406C37.3822 36.2445 37.3754 36.2485 37.3686 36.2524C37.3618 36.2563 37.355 36.2602 37.3482 36.2642C37.3414 36.2681 37.3346 36.272 37.3278 36.276C37.321 36.2799 37.3141 36.2838 37.3073 36.2878C37.3005 36.2917 37.2936 36.2957 37.2868 36.2996C37.28 36.3036 37.2731 36.3075 37.2663 36.3115C37.2594 36.3154 37.2526 36.3194 37.2457 36.3234C37.2388 36.3273 37.232 36.3313 37.2251 36.3352C37.2182 36.3392 37.2114 36.3432 37.2045 36.3472C37.1976 36.3511 37.1907 36.3551 37.1838 36.3591C37.1769 36.3631 37.17 36.367 37.1631 36.371C37.1562 36.375 37.1493 36.379 37.1424 36.383C37.1355 36.387 37.1286 36.391 37.1217 36.395C37.1147 36.399 37.1078 36.403 37.1009 36.407C37.094 36.411 37.087 36.415 37.0801 36.419C37.0731 36.423 37.0662 36.427 37.0593 36.431C37.0523 36.435 37.0453 36.439 37.0384 36.4431C37.0314 36.4471 37.0245 36.4511 37.0175 36.4551C37.0105 36.4591 37.0036 36.4632 36.9966 36.4672C36.9896 36.4712 36.9826 36.4752 36.9756 36.4793C36.9686 36.4833 36.9617 36.4874 36.9547 36.4914C36.9477 36.4954 36.9407 36.4995 36.9337 36.5035C36.9267 36.5076 36.9197 36.5116 36.9126 36.5157C36.9056 36.5197 36.8986 36.5238 36.8916 36.5278C36.8846 36.5319 36.8775 36.5359 36.8705 36.54C36.8635 36.544 36.8565 36.5481 36.8494 36.5522C36.8424 36.5562 36.8353 36.5603 36.8283 36.5644C36.8212 36.5684 36.8142 36.5725 36.8071 36.5766C36.8001 36.5806 36.793 36.5847 36.786 36.5888C36.7789 36.5929 36.7718 36.5969 36.7648 36.601C36.7577 36.6051 36.7506 36.6092 36.7435 36.6133C36.7365 36.6174 36.7294 36.6215 36.7223 36.6255C36.7152 36.6296 36.7081 36.6337 36.701 36.6378C36.6939 36.6419 36.6868 36.646 36.6797 36.6501C36.6726 36.6542 36.6655 36.6583 36.6584 36.6624C36.6513 36.6665 36.6442 36.6706 36.6371 36.6747C36.63 36.6788 36.6229 36.6829 36.6158 36.6871C36.6086 36.6912 36.6015 36.6953 36.5944 36.6994C36.5872 36.7035 36.5801 36.7076 36.573 36.7118C36.5658 36.7159 36.5587 36.72 36.5516 36.7241C36.5444 36.7282 36.5373 36.7324 36.5301 36.7365C36.523 36.7406 36.5158 36.7447 36.5087 36.7489C36.5015 36.753 36.4944 36.7571 36.4872 36.7613C36.48 36.7654 36.4729 36.7695 36.4657 36.7737C36.4585 36.7778 36.4514 36.782 36.4442 36.7861C36.437 36.7902 36.4299 36.7944 36.4227 36.7985C36.4155 36.8027 36.4083 36.8068 36.4011 36.811C36.3939 36.8151 36.3868 36.8193 36.3796 36.8234C36.3724 36.8276 36.3652 36.8317 36.358 36.8359C36.3508 36.84 36.3436 36.8442 36.3364 36.8484C36.3292 36.8525 36.322 36.8567 36.3148 36.8608C36.3076 36.865 36.3003 36.8692 36.2931 36.8733C36.2859 36.8775 36.2787 36.8817 36.2715 36.8858C36.2643 36.89 36.257 36.8942 36.2498 36.8983C36.2426 36.9025 36.2354 36.9067 36.2281 36.9108C36.2209 36.915 36.2137 36.9192 36.2065 36.9234C36.1992 36.9275 36.192 36.9317 36.1847 36.9359C36.1775 36.9401 36.1703 36.9443 36.163 36.9484C36.1558 36.9526 36.1485 36.9568 36.1413 36.961C36.134 36.9652 36.1268 36.9694 36.1195 36.9735C36.1123 36.9777 36.105 36.9819 36.0978 36.9861C36.0905 36.9903 36.0833 36.9945 36.076 36.9987C36.0688 37.0029 36.0615 37.0071 36.0542 37.0113C36.047 37.0154 36.0397 37.0196 36.0324 37.0238C36.0252 37.028 36.0179 37.0322 36.0106 37.0364C36.0033 37.0406 35.9961 37.0448 35.9888 37.049C35.9815 37.0532 35.9742 37.0574 35.967 37.0616C35.9597 37.0658 35.9524 37.07 35.9451 37.0742C35.9378 37.0785 35.9306 37.0827 35.9233 37.0869C35.916 37.0911 35.9087 37.0953 35.9014 37.0995C35.8941 37.1037 35.8868 37.1079 35.8795 37.1121C35.8722 37.1163 35.865 37.1205 35.8577 37.1247C35.8504 37.129 35.8431 37.1332 35.8358 37.1374C35.8285 37.1416 35.8212 37.1458 35.8139 37.15C35.8066 37.1542 35.7993 37.1585 35.792 37.1627C35.7847 37.1669 35.7774 37.1711 35.77 37.1753C35.7627 37.1795 35.7554 37.1838 35.7481 37.188C35.7408 37.1922 35.7335 37.1964 35.7262 37.2006C35.7189 37.2049 35.7116 37.2091 35.7043 37.2133C35.6969 37.2175 35.6896 37.2218 35.6823 37.226C35.675 37.2302 35.6677 37.2344 35.6604 37.2387C35.653 37.2429 35.6457 37.2471 35.6384 37.2513C35.6311 37.2556 35.6238 37.2598 35.6165 37.264C35.6091 37.2682 35.6018 37.2725 35.5945 37.2767C35.5872 37.2809 35.5798 37.2851 35.5725 37.2894C35.5652 37.2936 35.5579 37.2978 35.5505 37.3021C35.5432 37.3063 35.5359 37.3105 35.5286 37.3147C35.5212 37.319 35.5139 37.3232 35.5066 37.3274C35.4993 37.3317 35.4919 37.3359 35.4846 37.3401C35.4773 37.3444 35.4699 37.3486 35.4626 37.3528C35.4553 37.3571 35.4479 37.3613 35.4406 37.3655C35.4333 37.3698 35.426 37.374 35.4186 37.3782C35.4113 37.3825 35.404 37.3867 35.3966 37.3909C35.3893 37.3952 35.382 37.3994 35.3746 37.4036C35.3673 37.4079 35.36 37.4121 35.3526 37.4163C35.3453 37.4206 35.338 37.4248 35.3306 37.429C35.3233 37.4333 35.316 37.4375 35.3086 37.4417C35.3013 37.446 35.294 37.4502 35.2866 37.4544C35.2793 37.4587 35.272 37.4629 35.2646 37.4671C35.2573 37.4714 35.25 37.4756 35.2426 37.4798C35.2353 37.4841 35.228 37.4883 35.2206 37.4925C35.2133 37.4968 35.206 37.501 35.1986 37.5052C35.1913 37.5095 35.184 37.5137 35.1766 37.5179C35.1693 37.5222 35.162 37.5264 35.1546 37.5306C35.1473 37.5349 35.14 37.5391 35.1326 37.5433C35.1253 37.5476 35.118 37.5518 35.1106 37.556C35.1033 37.5603 35.096 37.5645 35.0887 37.5687C35.0813 37.573 35.074 37.5772 35.0667 37.5814C35.0593 37.5857 35.052 37.5899 35.0447 37.5941C35.0374 37.5983 35.03 37.6026 35.0227 37.6068C35.0154 37.611 35.0081 37.6153 35.0007 37.6195C34.9934 37.6237 34.9861 37.6279 34.9788 37.6322C34.9714 37.6364 34.9641 37.6406 34.9568 37.6449C34.9495 37.6491 34.9422 37.6533 34.9348 37.6575C34.9275 37.6618 34.9202 37.666 34.9129 37.6702C34.9056 37.6744 34.8983 37.6787 34.8909 37.6829C34.8836 37.6871 34.8763 37.6913 34.869 37.6955C34.8617 37.6998 34.8544 37.704 34.8471 37.7082C34.8398 37.7124 34.8324 37.7166 34.8251 37.7209C34.8178 37.7251 34.8105 37.7293 34.8032 37.7335C34.7959 37.7377 34.7886 37.742 34.7813 37.7462C34.774 37.7504 34.7667 37.7546 34.7594 37.7588C34.7521 37.763 34.7448 37.7673 34.7375 37.7715C34.7302 37.7757 34.7229 37.7799 34.7156 37.7841C34.7083 37.7883 34.701 37.7925 34.6937 37.7967C34.6864 37.8009 34.6792 37.8052 34.6719 37.8094C34.6646 37.8136 34.6573 37.8178 34.65 37.822C34.6427 37.8262 34.6354 37.8304 34.6282 37.8346C34.6209 37.8388 34.6136 37.843 34.6063 37.8472C34.599 37.8514 34.5918 37.8556 34.5845 37.8598C34.5772 37.864 34.5699 37.8682 34.5627 37.8724C34.5554 37.8766 34.5481 37.8808 34.5409 37.885C34.5336 37.8892 34.5263 37.8934 34.5191 37.8976C34.5118 37.9018 34.5045 37.906 34.4973 37.9102C34.49 37.9144 34.4828 37.9185 34.4755 37.9227C34.4682 37.9269 34.461 37.9311 34.4537 37.9353C34.4465 37.9395 34.4392 37.9437 34.432 37.9478C34.4248 37.952 34.4175 37.9562 34.4103 37.9604C34.403 37.9646 34.3958 37.9688 34.3885 37.9729C34.3813 37.9771 34.3741 37.9813 34.3668 37.9855C34.3596 37.9896 34.3524 37.9938 34.3452 37.998C34.3379 38.0022 34.3307 38.0063 34.3235 38.0105C34.3163 38.0147 34.309 38.0188 34.3018 38.023C34.2946 38.0272 34.2874 38.0313 34.2802 38.0355C34.273 38.0397 34.2658 38.0438 34.2585 38.048C34.2513 38.0522 34.2441 38.0563 34.2369 38.0605C34.2297 38.0646 34.2225 38.0688 34.2153 38.0729C34.2081 38.0771 34.201 38.0812 34.1938 38.0854C34.1866 38.0895 34.1794 38.0937 34.1722 38.0978C34.165 38.102 34.1578 38.1061 34.1507 38.1103C34.1435 38.1144 34.1363 38.1186 34.1291 38.1227C34.122 38.1269 34.1148 38.131 34.1076 38.1351C34.1005 38.1393 34.0933 38.1434 34.0861 38.1475C34.079 38.1517 34.0718 38.1558 34.0647 38.1599C34.0575 38.1641 34.0504 38.1682 34.0432 38.1723C34.0361 38.1764 34.0289 38.1806 34.0218 38.1847C34.0146 38.1888 34.0075 38.1929 34.0004 38.1971C33.9932 38.2012 33.9861 38.2053 33.979 38.2094C33.9718 38.2135 33.9647 38.2176 33.9576 38.2217C33.9505 38.2259 33.9434 38.23 33.9363 38.2341C33.9291 38.2382 33.922 38.2423 33.9149 38.2464C33.9078 38.2505 33.9007 38.2546 33.8936 38.2587C33.8865 38.2628 33.8794 38.2669 33.8723 38.271C33.8652 38.2751 33.8582 38.2792 33.8511 38.2833C33.844 38.2873 33.8369 38.2914 33.8298 38.2955C33.8228 38.2996 33.8157 38.3037 33.8086 38.3078C33.8015 38.3118 33.7945 38.3159 33.7874 38.32C33.7804 38.3241 33.7733 38.3282 33.7662 38.3322C33.7592 38.3363 33.7521 38.3404 33.7451 38.3444C33.7381 38.3485 33.731 38.3526 33.724 38.3566C33.7169 38.3607 33.7099 38.3647 33.7029 38.3688C33.6959 38.3729 33.6888 38.3769 33.6818 38.381C33.6748 38.385 33.6678 38.3891 33.6608 38.3931C33.6538 38.3972 33.6467 38.4012 33.6397 38.4053C33.6327 38.4093 33.6257 38.4133 33.6188 38.4174C33.6118 38.4214 33.6048 38.4255 33.5978 38.4295C33.5908 38.4335 33.5838 38.4375 33.5768 38.4416C33.5699 38.4456 33.5629 38.4496 33.5559 38.4536C33.549 38.4577 33.542 38.4617 33.535 38.4657C33.5281 38.4697 33.5211 38.4737 33.5142 38.4778C33.5072 38.4818 33.5003 38.4858 33.4934 38.4898C33.4864 38.4938 33.4795 38.4978 33.4726 38.5018C33.4656 38.5058 33.4587 38.5098 33.4518 38.5138C33.4449 38.5178 33.4379 38.5218 33.431 38.5258C33.4241 38.5297 33.4172 38.5337 33.4103 38.5377C33.4034 38.5417 33.3965 38.5457 33.3896 38.5497C33.3827 38.5536 33.3759 38.5576 33.369 38.5616C33.3621 38.5656 33.3552 38.5695 33.3484 38.5735C33.3415 38.5775 33.3346 38.5814 33.3278 38.5854C33.3209 38.5893 33.3141 38.5933 33.3072 38.5973C33.3004 38.6012 33.2935 38.6052 33.2867 38.6091C33.2798 38.6131 33.273 38.617 33.2662 38.6209C33.2593 38.6249 33.2525 38.6288 33.2457 38.6328C33.2389 38.6367 33.2321 38.6406 33.2253 38.6446C33.2185 38.6485 33.2117 38.6524 33.2049 38.6563C33.1981 38.6603 33.1913 38.6642 33.1845 38.6681C33.1777 38.672 33.171 38.6759 33.1642 38.6798C33.1574 38.6837 33.1506 38.6876 33.1439 38.6915C33.1371 38.6954 33.1304 38.6993 33.1236 38.7032C33.1169 38.7071 33.1101 38.711 33.1034 38.7149C33.0966 38.7188 33.0899 38.7227 33.0832 38.7266C33.0765 38.7305 33.0697 38.7343 33.063 38.7382C33.0563 38.7421 33.0496 38.746 33.0429 38.7498C33.0362 38.7537 33.0295 38.7576 33.0228 38.7614C33.0161 38.7653 33.0094 38.7692 33.0028 38.773C32.9961 38.7769 32.9894 38.7807 32.9828 38.7846C32.9761 38.7884 32.9694 38.7923 32.9628 38.7961C32.9561 38.7999 32.9495 38.8038 32.9428 38.8076C32.9362 38.8114 32.9296 38.8153 32.9229 38.8191C32.9163 38.8229 32.9097 38.8268 32.9031 38.8306C32.8965 38.8344 32.8899 38.8382 32.8832 38.842C32.8766 38.8458 32.8701 38.8496 32.8635 38.8534C32.8569 38.8572 32.8503 38.861 32.8437 38.8648C32.8371 38.8686 32.8306 38.8724 32.824 38.8762C32.8174 38.88 32.8109 38.8838 32.8043 38.8876C32.7978 38.8914 32.7912 38.8951 32.7847 38.8989C32.7782 38.9027 32.7716 38.9065 32.7651 38.9102C32.7586 38.914 32.7521 38.9177 32.7456 38.9215C32.7391 38.9253 32.7326 38.929 32.7261 38.9328C32.7196 38.9365 32.7131 38.9403 32.7066 38.944C32.7001 38.9477 32.6937 38.9515 32.6872 38.9552C32.6807 38.959 32.6743 38.9627 32.6678 38.9664C32.6614 38.9701 32.6549 38.9739 32.6485 38.9776C32.642 38.9813 32.6356 38.985 32.6292 38.9887C32.6228 38.9924 32.6163 38.9961 32.6099 38.9998C32.6035 39.0035 32.5971 39.0072 32.5907 39.0109C32.5843 39.0146 32.5779 39.0183 32.5716 39.022C32.5652 39.0257 32.5588 39.0293 32.5524 39.033C32.5461 39.0367 32.5397 39.0404 32.5334 39.044C32.527 39.0477 32.5207 39.0514 32.5143 39.055C32.508 39.0587 32.5017 39.0623 32.4954 39.066C32.489 39.0696 32.4827 39.0733 32.4764 39.0769C32.4701 39.0805 32.4638 39.0842 32.4575 39.0878C32.4512 39.0914 32.445 39.0951 32.4387 39.0987C32.4324 39.1023 32.4261 39.1059 32.4199 39.1095C32.4136 39.1132 32.4074 39.1168 32.4011 39.1204C32.3949 39.124 32.3887 39.1276 32.3824 39.1312C32.3762 39.1348 32.37 39.1384 32.3638 39.1419C32.3576 39.1455 32.3514 39.1491 32.3452 39.1527C32.339 39.1563 32.3328 39.1598 32.3266 39.1634C32.3204 39.167 32.3143 39.1705 32.3081 39.1741C32.3019 39.1776 32.2958 39.1812 32.2896 39.1847C32.2835 39.1883 32.2773 39.1918 32.2712 39.1954C32.2651 39.1989 32.259 39.2025 32.2529 39.206C32.2467 39.2095 32.2406 39.213 32.2345 39.2166C32.2284 39.2201 32.2224 39.2236 32.2163 39.2271C32.2102 39.2306 32.2041 39.2341 32.1981 39.2376C32.192 39.2411 32.1859 39.2446 32.1799 39.2481C32.1739 39.2516 32.1678 39.2551 32.1618 39.2586C32.1558 39.262 32.1498 39.2655 32.1437 39.269C32.1377 39.2724 32.1317 39.2759 32.1257 39.2794C32.1197 39.2828 32.1138 39.2863 32.1078 39.2897L31.6078 38.4237C31.6138 38.4203 31.6197 38.4168 31.6257 38.4133C31.6317 38.4099 31.6377 38.4064 31.6437 38.403C31.6498 38.3995 31.6558 38.396 31.6618 38.3925C31.6678 38.389 31.6739 38.3856 31.6799 38.3821C31.6859 38.3786 31.692 38.3751 31.6981 38.3716C31.7041 38.3681 31.7102 38.3646 31.7163 38.3611C31.7224 38.3576 31.7284 38.354 31.7345 38.3505C31.7406 38.347 31.7467 38.3435 31.7529 38.34C31.759 38.3364 31.7651 38.3329 31.7712 38.3294C31.7773 38.3258 31.7835 38.3223 31.7896 38.3187C31.7958 38.3152 31.8019 38.3116 31.8081 38.3081C31.8143 38.3045 31.8204 38.3009 31.8266 38.2974C31.8328 38.2938 31.839 38.2902 31.8452 38.2867C31.8514 38.2831 31.8576 38.2795 31.8638 38.2759C31.87 38.2723 31.8762 38.2687 31.8824 38.2651C31.8887 38.2616 31.8949 38.258 31.9011 38.2543C31.9074 38.2507 31.9136 38.2471 31.9199 38.2435C31.9261 38.2399 31.9324 38.2363 31.9387 38.2327C31.945 38.229 31.9512 38.2254 31.9575 38.2218C31.9638 38.2182 31.9701 38.2145 31.9764 38.2109C31.9827 38.2072 31.989 38.2036 31.9954 38.1999C32.0017 38.1963 32.008 38.1926 32.0143 38.189C32.0207 38.1853 32.027 38.1817 32.0334 38.178C32.0397 38.1743 32.0461 38.1707 32.0524 38.167C32.0588 38.1633 32.0652 38.1596 32.0716 38.1559C32.0779 38.1523 32.0843 38.1486 32.0907 38.1449C32.0971 38.1412 32.1035 38.1375 32.1099 38.1338C32.1163 38.1301 32.1228 38.1264 32.1292 38.1227C32.1356 38.119 32.142 38.1153 32.1485 38.1115C32.1549 38.1078 32.1614 38.1041 32.1678 38.1004C32.1743 38.0967 32.1807 38.0929 32.1872 38.0892C32.1937 38.0855 32.2001 38.0817 32.2066 38.078C32.2131 38.0742 32.2196 38.0705 32.2261 38.0667C32.2326 38.063 32.2391 38.0592 32.2456 38.0555C32.2521 38.0517 32.2586 38.048 32.2651 38.0442C32.2716 38.0404 32.2782 38.0367 32.2847 38.0329C32.2912 38.0291 32.2978 38.0253 32.3043 38.0216C32.3109 38.0178 32.3174 38.014 32.324 38.0102C32.3306 38.0064 32.3371 38.0026 32.3437 37.9988C32.3503 37.995 32.3569 37.9912 32.3635 37.9874C32.3701 37.9836 32.3766 37.9798 32.3832 37.976C32.3899 37.9722 32.3965 37.9684 32.4031 37.9645C32.4097 37.9607 32.4163 37.9569 32.4229 37.9531C32.4296 37.9493 32.4362 37.9454 32.4428 37.9416C32.4495 37.9378 32.4561 37.9339 32.4628 37.9301C32.4694 37.9262 32.4761 37.9224 32.4828 37.9185C32.4894 37.9147 32.4961 37.9108 32.5028 37.907C32.5094 37.9031 32.5161 37.8993 32.5228 37.8954C32.5295 37.8916 32.5362 37.8877 32.5429 37.8838C32.5496 37.8799 32.5563 37.8761 32.563 37.8722C32.5697 37.8683 32.5765 37.8644 32.5832 37.8606C32.5899 37.8567 32.5966 37.8528 32.6034 37.8489C32.6101 37.845 32.6169 37.8411 32.6236 37.8372C32.6304 37.8333 32.6371 37.8294 32.6439 37.8255C32.6506 37.8216 32.6574 37.8177 32.6642 37.8138C32.671 37.8099 32.6777 37.806 32.6845 37.8021C32.6913 37.7981 32.6981 37.7942 32.7049 37.7903C32.7117 37.7864 32.7185 37.7825 32.7253 37.7785C32.7321 37.7746 32.7389 37.7707 32.7457 37.7667C32.7525 37.7628 32.7593 37.7589 32.7662 37.7549C32.773 37.751 32.7798 37.747 32.7867 37.7431C32.7935 37.7391 32.8004 37.7352 32.8072 37.7312C32.8141 37.7273 32.8209 37.7233 32.8278 37.7194C32.8346 37.7154 32.8415 37.7114 32.8484 37.7075C32.8552 37.7035 32.8621 37.6995 32.869 37.6956C32.8759 37.6916 32.8827 37.6876 32.8896 37.6836C32.8965 37.6797 32.9034 37.6757 32.9103 37.6717C32.9172 37.6677 32.9241 37.6637 32.931 37.6597C32.9379 37.6557 32.9449 37.6518 32.9518 37.6478C32.9587 37.6438 32.9656 37.6398 32.9726 37.6358C32.9795 37.6318 32.9864 37.6278 32.9934 37.6238C33.0003 37.6197 33.0072 37.6157 33.0142 37.6117C33.0211 37.6077 33.0281 37.6037 33.035 37.5997C33.042 37.5957 33.049 37.5916 33.0559 37.5876C33.0629 37.5836 33.0699 37.5796 33.0768 37.5755C33.0838 37.5715 33.0908 37.5675 33.0978 37.5635C33.1048 37.5594 33.1118 37.5554 33.1188 37.5514C33.1257 37.5473 33.1327 37.5433 33.1397 37.5392C33.1467 37.5352 33.1538 37.5311 33.1608 37.5271C33.1678 37.523 33.1748 37.519 33.1818 37.5149C33.1888 37.5109 33.1959 37.5068 33.2029 37.5028C33.2099 37.4987 33.2169 37.4947 33.224 37.4906C33.231 37.4865 33.2381 37.4825 33.2451 37.4784C33.2521 37.4743 33.2592 37.4703 33.2662 37.4662C33.2733 37.4621 33.2804 37.4581 33.2874 37.454C33.2945 37.4499 33.3015 37.4458 33.3086 37.4417C33.3157 37.4377 33.3228 37.4336 33.3298 37.4295C33.3369 37.4254 33.344 37.4213 33.3511 37.4172C33.3582 37.4131 33.3652 37.409 33.3723 37.4049C33.3794 37.4009 33.3865 37.3968 33.3936 37.3927C33.4007 37.3886 33.4078 37.3845 33.4149 37.3804C33.422 37.3763 33.4291 37.3722 33.4363 37.368C33.4434 37.3639 33.4505 37.3598 33.4576 37.3557C33.4647 37.3516 33.4718 37.3475 33.479 37.3434C33.4861 37.3393 33.4932 37.3351 33.5004 37.331C33.5075 37.3269 33.5146 37.3228 33.5218 37.3187C33.5289 37.3145 33.5361 37.3104 33.5432 37.3063C33.5504 37.3022 33.5575 37.298 33.5647 37.2939C33.5718 37.2898 33.579 37.2856 33.5861 37.2815C33.5933 37.2774 33.6005 37.2732 33.6076 37.2691C33.6148 37.265 33.622 37.2608 33.6291 37.2567C33.6363 37.2525 33.6435 37.2484 33.6507 37.2443C33.6578 37.2401 33.665 37.236 33.6722 37.2318C33.6794 37.2277 33.6866 37.2235 33.6938 37.2194C33.701 37.2152 33.7081 37.2111 33.7153 37.2069C33.7225 37.2028 33.7297 37.1986 33.7369 37.1944C33.7441 37.1903 33.7513 37.1861 33.7585 37.182C33.7658 37.1778 33.773 37.1736 33.7802 37.1695C33.7874 37.1653 33.7946 37.1611 33.8018 37.157C33.809 37.1528 33.8163 37.1486 33.8235 37.1445C33.8307 37.1403 33.8379 37.1361 33.8452 37.132C33.8524 37.1278 33.8596 37.1236 33.8668 37.1194C33.8741 37.1153 33.8813 37.1111 33.8885 37.1069C33.8958 37.1027 33.903 37.0986 33.9103 37.0944C33.9175 37.0902 33.9248 37.086 33.932 37.0818C33.9392 37.0776 33.9465 37.0735 33.9537 37.0693C33.961 37.0651 33.9682 37.0609 33.9755 37.0567C33.9828 37.0525 33.99 37.0483 33.9973 37.0441C34.0045 37.0399 34.0118 37.0358 34.0191 37.0316C34.0263 37.0274 34.0336 37.0232 34.0409 37.019C34.0481 37.0148 34.0554 37.0106 34.0627 37.0064C34.0699 37.0022 34.0772 36.998 34.0845 36.9938C34.0918 36.9896 34.099 36.9854 34.1063 36.9812C34.1136 36.977 34.1209 36.9728 34.1282 36.9686C34.1354 36.9644 34.1427 36.9602 34.15 36.956C34.1573 36.9518 34.1646 36.9475 34.1719 36.9433C34.1792 36.9391 34.1864 36.9349 34.1937 36.9307C34.201 36.9265 34.2083 36.9223 34.2156 36.9181C34.2229 36.9139 34.2302 36.9097 34.2375 36.9054C34.2448 36.9012 34.2521 36.897 34.2594 36.8928C34.2667 36.8886 34.274 36.8844 34.2813 36.8802C34.2886 36.8759 34.2959 36.8717 34.3032 36.8675C34.3105 36.8633 34.3178 36.8591 34.3251 36.8548C34.3324 36.8506 34.3398 36.8464 34.3471 36.8422C34.3544 36.838 34.3617 36.8337 34.369 36.8295C34.3763 36.8253 34.3836 36.8211 34.3909 36.8169C34.3983 36.8126 34.4056 36.8084 34.4129 36.8042C34.4202 36.8 34.4275 36.7957 34.4348 36.7915C34.4422 36.7873 34.4495 36.7831 34.4568 36.7788C34.4641 36.7746 34.4714 36.7704 34.4788 36.7661C34.4861 36.7619 34.4934 36.7577 34.5007 36.7535C34.5081 36.7492 34.5154 36.745 34.5227 36.7408C34.53 36.7365 34.5374 36.7323 34.5447 36.7281C34.552 36.7239 34.5593 36.7196 34.5667 36.7154C34.574 36.7112 34.5813 36.7069 34.5887 36.7027C34.596 36.6985 34.6033 36.6942 34.6106 36.69C34.618 36.6858 34.6253 36.6815 34.6326 36.6773C34.64 36.6731 34.6473 36.6688 34.6546 36.6646C34.662 36.6604 34.6693 36.6561 34.6766 36.6519C34.684 36.6477 34.6913 36.6434 34.6986 36.6392C34.706 36.635 34.7133 36.6307 34.7206 36.6265C34.728 36.6223 34.7353 36.618 34.7426 36.6138C34.75 36.6096 34.7573 36.6053 34.7646 36.6011C34.772 36.5969 34.7793 36.5926 34.7866 36.5884C34.794 36.5842 34.8013 36.5799 34.8086 36.5757C34.816 36.5715 34.8233 36.5672 34.8306 36.563C34.838 36.5588 34.8453 36.5545 34.8526 36.5503C34.86 36.5461 34.8673 36.5418 34.8746 36.5376C34.882 36.5334 34.8893 36.5291 34.8966 36.5249C34.904 36.5207 34.9113 36.5164 34.9186 36.5122C34.926 36.508 34.9333 36.5037 34.9406 36.4995C34.9479 36.4953 34.9553 36.491 34.9626 36.4868C34.9699 36.4826 34.9773 36.4783 34.9846 36.4741C34.9919 36.4699 34.9993 36.4656 35.0066 36.4614C35.0139 36.4572 35.0212 36.453 35.0286 36.4487C35.0359 36.4445 35.0432 36.4403 35.0505 36.436C35.0579 36.4318 35.0652 36.4276 35.0725 36.4233C35.0798 36.4191 35.0872 36.4149 35.0945 36.4107C35.1018 36.4064 35.1091 36.4022 35.1165 36.398C35.1238 36.3938 35.1311 36.3895 35.1384 36.3853C35.1457 36.3811 35.153 36.3769 35.1604 36.3726C35.1677 36.3684 35.175 36.3642 35.1823 36.36C35.1896 36.3557 35.1969 36.3515 35.2043 36.3473C35.2116 36.3431 35.2189 36.3388 35.2262 36.3346C35.2335 36.3304 35.2408 36.3262 35.2481 36.322C35.2554 36.3177 35.2627 36.3135 35.27 36.3093C35.2774 36.3051 35.2847 36.3009 35.292 36.2966C35.2993 36.2924 35.3066 36.2882 35.3139 36.284C35.3212 36.2798 35.3285 36.2756 35.3358 36.2714C35.3431 36.2671 35.3504 36.2629 35.3577 36.2587C35.365 36.2545 35.3722 36.2503 35.3795 36.2461C35.3868 36.2419 35.3941 36.2377 35.4014 36.2335C35.4087 36.2293 35.416 36.225 35.4233 36.2208C35.4306 36.2166 35.4378 36.2124 35.4451 36.2082C35.4524 36.204 35.4597 36.1998 35.467 36.1956C35.4742 36.1914 35.4815 36.1872 35.4888 36.183C35.4961 36.1788 35.5033 36.1746 35.5106 36.1704C35.5179 36.1662 35.5252 36.162 35.5324 36.1578C35.5397 36.1536 35.547 36.1494 35.5542 36.1452C35.5615 36.141 35.5688 36.1368 35.576 36.1327C35.5833 36.1285 35.5905 36.1243 35.5978 36.1201C35.605 36.1159 35.6123 36.1117 35.6195 36.1075C35.6268 36.1033 35.634 36.0991 35.6413 36.095C35.6485 36.0908 35.6558 36.0866 35.663 36.0824C35.6703 36.0782 35.6775 36.0741 35.6847 36.0699C35.692 36.0657 35.6992 36.0615 35.7065 36.0573C35.7137 36.0532 35.7209 36.049 35.7281 36.0448C35.7354 36.0406 35.7426 36.0365 35.7498 36.0323C35.757 36.0281 35.7643 36.024 35.7715 36.0198C35.7787 36.0156 35.7859 36.0115 35.7931 36.0073C35.8003 36.0031 35.8076 35.999 35.8148 35.9948C35.822 35.9906 35.8292 35.9865 35.8364 35.9823C35.8436 35.9782 35.8508 35.974 35.858 35.9699C35.8652 35.9657 35.8724 35.9616 35.8796 35.9574C35.8868 35.9532 35.8939 35.9491 35.9011 35.9449C35.9083 35.9408 35.9155 35.9367 35.9227 35.9325C35.9299 35.9284 35.937 35.9242 35.9442 35.9201C35.9514 35.9159 35.9585 35.9118 35.9657 35.9077C35.9729 35.9035 35.98 35.8994 35.9872 35.8953C35.9944 35.8911 36.0015 35.887 36.0087 35.8829C36.0158 35.8787 36.023 35.8746 36.0301 35.8705C36.0373 35.8663 36.0444 35.8622 36.0516 35.8581C36.0587 35.854 36.0658 35.8498 36.073 35.8457C36.0801 35.8416 36.0872 35.8375 36.0944 35.8334C36.1015 35.8293 36.1086 35.8251 36.1158 35.821C36.1229 35.8169 36.13 35.8128 36.1371 35.8087C36.1442 35.8046 36.1513 35.8005 36.1584 35.7964C36.1655 35.7923 36.1726 35.7882 36.1797 35.7841C36.1868 35.78 36.1939 35.7759 36.201 35.7718C36.2081 35.7677 36.2152 35.7636 36.2223 35.7595C36.2294 35.7554 36.2365 35.7513 36.2435 35.7473C36.2506 35.7432 36.2577 35.7391 36.2648 35.735C36.2718 35.7309 36.2789 35.7268 36.286 35.7228C36.293 35.7187 36.3001 35.7146 36.3071 35.7105C36.3142 35.7065 36.3212 35.7024 36.3283 35.6983C36.3353 35.6943 36.3424 35.6902 36.3494 35.6861C36.3565 35.6821 36.3635 35.678 36.3705 35.6739C36.3775 35.6699 36.3846 35.6658 36.3916 35.6618C36.3986 35.6577 36.4056 35.6537 36.4126 35.6496C36.4197 35.6456 36.4267 35.6415 36.4337 35.6375C36.4407 35.6334 36.4477 35.6294 36.4547 35.6254C36.4617 35.6213 36.4686 35.6173 36.4756 35.6133C36.4826 35.6092 36.4896 35.6052 36.4966 35.6012C36.5036 35.5971 36.5105 35.5931 36.5175 35.5891C36.5245 35.5851 36.5314 35.581 36.5384 35.577C36.5453 35.573 36.5523 35.569 36.5593 35.565C36.5662 35.561 36.5731 35.557 36.5801 35.553C36.587 35.5489 36.594 35.5449 36.6009 35.5409C36.6078 35.5369 36.6147 35.5329 36.6217 35.5289C36.6286 35.5249 36.6355 35.521 36.6424 35.517C36.6493 35.513 36.6562 35.509 36.6631 35.505C36.67 35.501 36.6769 35.497 36.6838 35.4931C36.6907 35.4891 36.6976 35.4851 36.7045 35.4811C36.7114 35.4772 36.7182 35.4732 36.7251 35.4692C36.732 35.4653 36.7388 35.4613 36.7457 35.4573C36.7526 35.4534 36.7594 35.4494 36.7663 35.4455C36.7731 35.4415 36.78 35.4375 36.7868 35.4336C36.7936 35.4296 36.8005 35.4257 36.8073 35.4218C36.8141 35.4178 36.821 35.4139 36.8278 35.4099C36.8346 35.406 36.8414 35.4021 36.8482 35.3981C36.855 35.3942 36.8618 35.3903 36.8686 35.3864C36.8754 35.3824 36.8822 35.3785 36.889 35.3746C36.8958 35.3707 36.9026 35.3668 36.9093 35.3629C36.9161 35.3589 36.9229 35.355 36.9296 35.3511C36.9364 35.3472 36.9432 35.3433 36.9499 35.3394C36.9567 35.3355 36.9634 35.3316 36.9701 35.3277C36.9769 35.3239 36.9836 35.32 36.9903 35.3161C36.9971 35.3122 37.0038 35.3083 37.0105 35.3044C37.0172 35.3006 37.0239 35.2967 37.0306 35.2928C37.0373 35.289 37.044 35.2851 37.0507 35.2812C37.0574 35.2774 37.0641 35.2735 37.0708 35.2696C37.0775 35.2658 37.0841 35.2619 37.0908 35.2581C37.0975 35.2542 37.1041 35.2504 37.1108 35.2465C37.1174 35.2427 37.1241 35.2389 37.1307 35.235C37.1374 35.2312 37.144 35.2274 37.1506 35.2235C37.1573 35.2197 37.1639 35.2159 37.1705 35.2121C37.1771 35.2082 37.1837 35.2044 37.1903 35.2006C37.1969 35.1968 37.2035 35.193 37.2101 35.1892C37.2167 35.1854 37.2233 35.1816 37.2299 35.1778C37.2365 35.174 37.243 35.1702 37.2496 35.1664C37.2562 35.1626 37.2627 35.1588 37.2693 35.155C37.2758 35.1513 37.2824 35.1475 37.2889 35.1437C37.2955 35.1399 37.302 35.1362 37.3085 35.1324C37.315 35.1286 37.3215 35.1249 37.3281 35.1211C37.3346 35.1173 37.3411 35.1136 37.3476 35.1098C37.3541 35.1061 37.3606 35.1023 37.367 35.0986C37.3735 35.0949 37.38 35.0911 37.3865 35.0874C37.3929 35.0836 37.3994 35.0799 37.4059 35.0762C37.4123 35.0725 37.4188 35.0687 37.4252 35.065C37.4316 35.0613 37.4381 35.0576 37.4445 35.0539C37.4509 35.0502 37.4573 35.0465 37.4638 35.0428C37.4702 35.0391 37.4766 35.0354 37.483 35.0317C37.4894 35.028 37.4958 35.0243 37.5021 35.0206C37.5085 35.0169 37.5149 35.0132 37.5213 35.0096C37.5276 35.0059 37.534 35.0022 37.5403 34.9985C37.5467 34.9949 37.553 34.9912 37.5594 34.9876C37.5657 34.9839 37.572 34.9802 37.5784 34.9766C37.5847 34.9729 37.591 34.9693 37.5973 34.9657C37.6036 34.962 37.6099 34.9584 37.6162 34.9547C37.6225 34.9511 37.6288 34.9475 37.6351 34.9439C37.6413 34.9402 37.6476 34.9366 37.6539 34.933C37.6601 34.9294 37.6664 34.9258 37.6726 34.9222C37.6789 34.9186 37.6851 34.915 37.6913 34.9114C37.6976 34.9078 37.7038 34.9042 37.71 34.9006C37.7162 34.897 37.7224 34.8934 37.7286 34.8898C37.7348 34.8863 37.741 34.8827 37.7472 34.8791C37.7534 34.8756 37.7595 34.872 37.7657 34.8684C37.7719 34.8649 37.778 34.8613 37.7842 34.8578C37.7903 34.8542 37.7965 34.8507 37.8026 34.8471C37.8087 34.8436 37.8149 34.8401 37.821 34.8365C37.8271 34.833 37.8332 34.8295 37.8393 34.8259C37.8454 34.8224 37.8515 34.8189 37.8576 34.8154C37.8636 34.8119 37.8697 34.8084 37.8758 34.8049C37.8818 34.8014 37.8879 34.7979 37.8939 34.7944C37.9 34.7909 37.906 34.7874 37.9121 34.7839C37.9181 34.7804 37.9241 34.777 37.9301 34.7735C37.9361 34.77 37.9421 34.7666 37.9481 34.7631C37.9541 34.7596 37.9601 34.7562 37.9661 34.7527C37.9721 34.7493 37.9781 34.7458 37.984 34.7424C37.99 34.739 37.9959 34.7355 38.0019 34.7321C38.0078 34.7287 38.0137 34.7252 38.0197 34.7218C38.0256 34.7184 38.0315 34.715 38.0374 34.7116C38.0433 34.7082 38.0492 34.7047 38.0551 34.7013C38.061 34.6979 38.0669 34.6946 38.0727 34.6912C38.0786 34.6878 38.0845 34.6844 38.0903 34.681C38.0962 34.6776 38.102 34.6743 38.1079 34.6709C38.1137 34.6675 38.1195 34.6642 38.1253 34.6608C38.1311 34.6574 38.1369 34.6541 38.1427 34.6508C38.1485 34.6474 38.1543 34.6441 38.1601 34.6407C38.1659 34.6374 38.1716 34.6341 38.1774 34.6307C38.1832 34.6274 38.1889 34.6241 38.1947 34.6208C38.2004 34.6175 38.2061 34.6142 38.2118 34.6109C38.2176 34.6076 38.2233 34.6043 38.229 34.601C38.2347 34.5977 38.2404 34.5944 38.246 34.5911C38.2517 34.5878 38.2574 34.5846 38.2631 34.5813C38.2687 34.578 38.2744 34.5748 38.28 34.5715C38.2857 34.5682 38.2913 34.565 38.2969 34.5617C38.3025 34.5585 38.3081 34.5553 38.3137 34.552C38.3194 34.5488 38.3249 34.5456 38.3305 34.5423C38.3361 34.5391 38.3417 34.5359 38.3472 34.5327C38.3528 34.5295 38.3584 34.5263 38.3639 34.5231C38.3694 34.5199 38.375 34.5167 38.3805 34.5135C38.386 34.5103 38.3915 34.5071 38.397 34.5039C38.4025 34.5008 38.408 34.4976 38.4135 34.4944C38.419 34.4913 38.4245 34.4881 38.4299 34.4849C38.4354 34.4818 38.4408 34.4786 38.4463 34.4755C38.4517 34.4724 38.4571 34.4692 38.4626 34.4661C38.468 34.463 38.4734 34.4599 38.4788 34.4567C38.4842 34.4536 38.4896 34.4505 38.4949 34.4474C38.5003 34.4443 38.5057 34.4412 38.511 34.4381C38.5164 34.435 38.5217 34.4319 38.5271 34.4289C38.5324 34.4258 38.5377 34.4227 38.5431 34.4196C38.5484 34.4166 38.5537 34.4135 38.559 34.4104C38.5643 34.4074 38.5695 34.4043 38.5748 34.4013C38.5801 34.3983 38.5853 34.3952 38.5906 34.3922C38.5958 34.3892 38.6011 34.3861 38.6063 34.3831C38.6115 34.3801 38.6167 34.3771 38.6219 34.3741C38.6271 34.3711 38.6323 34.3681 38.6375 34.3651C38.6427 34.3621 38.6479 34.3591 38.653 34.3561C38.6582 34.3532 38.6633 34.3502 38.6685 34.3472C38.6736 34.3443 38.6787 34.3413 38.6838 34.3383C38.689 34.3354 38.6941 34.3324 38.6992 34.3295C38.7042 34.3266 38.7093 34.3236 38.7144 34.3207C38.7195 34.3178 38.7245 34.3149 38.7296 34.3119C38.7346 34.309 38.7397 34.3061 38.7447 34.3032C38.7497 34.3003 38.7547 34.2974 38.7597 34.2945C38.7647 34.2917 38.7697 34.2888 38.7747 34.2859C38.7797 34.283 38.7846 34.2802 38.7896 34.2773C38.7945 34.2744 38.7995 34.2716 38.8044 34.2687C38.8093 34.2659 38.8142 34.2631 38.8192 34.2602C38.8241 34.2574 38.829 34.2546 38.8338 34.2517C38.8387 34.2489 38.8436 34.2461 38.8485 34.2433C38.8533 34.2405 38.8582 34.2377 38.863 34.2349C38.8678 34.2321 38.8727 34.2293 38.8775 34.2266C38.8823 34.2238 38.8871 34.221 38.8919 34.2182C38.8967 34.2155 38.9014 34.2127 38.9062 34.21C38.911 34.2072 38.9157 34.2045 38.9205 34.2017C38.9252 34.199 38.9299 34.1963 38.9346 34.1936C38.9394 34.1908 38.9441 34.1881 38.9487 34.1854C38.9534 34.1827 38.9581 34.18 38.9628 34.1773C38.9674 34.1746 38.9721 34.1719 38.9767 34.1692C38.9814 34.1666 38.986 34.1639 38.9906 34.1612C38.9952 34.1586 38.9998 34.1559 39.0044 34.1533C39.009 34.1506 39.0136 34.148 39.0182 34.1453C39.0227 34.1427 39.0273 34.1401 39.0318 34.1374C39.0364 34.1348 39.0409 34.1322 39.0454 34.1296C39.0499 34.127 39.0544 34.1244 39.0589 34.1218C39.0634 34.1192 39.0679 34.1166 39.0724 34.114C39.0768 34.1115 39.0813 34.1089 39.0857 34.1063C39.0901 34.1038 39.0946 34.1012 39.099 34.0987C39.1034 34.0961 39.1078 34.0936 39.1122 34.091C39.1166 34.0885 39.1209 34.086 39.1253 34.0835C39.1297 34.0809 39.134 34.0784 39.1383 34.0759C39.1427 34.0734 39.147 34.0709 39.1513 34.0685C39.1556 34.066 39.1599 34.0635 39.1642 34.061C39.1685 34.0585 39.1728 34.0561 39.177 34.0536C39.1813 34.0512 39.1855 34.0487 39.1897 34.0463C39.194 34.0438 39.1982 34.0414 39.2024 34.039C39.2066 34.0365 39.2108 34.0341 39.2149 34.0317C39.2191 34.0293 39.2233 34.0269 39.2274 34.0245C39.2316 34.0221 39.2357 34.0197 39.2398 34.0173C39.244 34.015 39.2481 34.0126 39.2522 34.0102C39.2563 34.0079 39.2603 34.0055 39.2644 34.0032C39.2685 34.0008 39.2725 33.9985 39.2766 33.9961C39.2806 33.9938 39.2846 33.9915 39.2886 33.9892C39.2927 33.9868 39.2967 33.9845 39.3006 33.9822C39.3046 33.9799 39.3086 33.9776 39.3126 33.9754C39.3165 33.9731 39.3204 33.9708 39.3244 33.9685C39.3283 33.9663 39.3322 33.964 39.3361 33.9618C39.34 33.9595 39.3439 33.9573 39.3478 33.955C39.3517 33.9528 39.3555 33.9506 39.3594 33.9483C39.3632 33.9461 39.367 33.9439 39.3709 33.9417C39.3747 33.9395 39.3785 33.9373 39.3823 33.9351C39.386 33.9329 39.3898 33.9307 39.3936 33.9286C39.3973 33.9264 39.4011 33.9242 39.4048 33.9221C39.4085 33.9199 39.4123 33.9178 39.416 33.9157C39.4197 33.9135 39.4234 33.9114 39.427 33.9093C39.4307 33.9071 39.4344 33.905 39.438 33.9029C39.4416 33.9008 39.4453 33.8987 39.4489 33.8966C39.4525 33.8946 39.4561 33.8925 39.4597 33.8904C39.4633 33.8883 39.4668 33.8863 39.4704 33.8842C39.474 33.8822 39.4775 33.8801 39.481 33.8781C39.4846 33.8761 39.4881 33.874 39.4916 33.872C39.4951 33.87 39.4985 33.868 39.502 33.866C39.5055 33.864 39.5089 33.862 39.5124 33.86C39.5158 33.858 39.5192 33.856 39.5226 33.8541C39.526 33.8521 39.5294 33.8501 39.5328 33.8482C39.5362 33.8462 39.5396 33.8443 39.5429 33.8424C39.5463 33.8404 39.5496 33.8385 39.5529 33.8366C39.5562 33.8347 39.5595 33.8328 39.5628 33.8309C39.5661 33.829 39.5694 33.8271 39.5726 33.8252C39.5759 33.8233 39.5791 33.8215 39.5823 33.8196C39.5856 33.8177 39.5888 33.8159 39.592 33.814C39.5952 33.8122 39.5984 33.8104 39.6015 33.8085C39.6047 33.8067 39.6078 33.8049 39.611 33.8031C39.6141 33.8013 39.6172 33.7995 39.6203 33.7977C39.6234 33.7959 39.6265 33.7941 39.6296 33.7923C39.6327 33.7906 39.6357 33.7888 39.6387 33.787C39.6418 33.7853 39.6448 33.7835 39.6478 33.7818C39.6508 33.7801 39.6538 33.7783 39.6568 33.7766C39.6598 33.7749 39.6627 33.7732 39.6657 33.7715C39.6686 33.7698 39.6716 33.7681 39.6745 33.7664C39.6774 33.7647 39.6803 33.7631 39.6832 33.7614C39.686 33.7597 39.6889 33.7581 39.6918 33.7564C39.6946 33.7548 39.6974 33.7531 39.7003 33.7515C39.7031 33.7499 39.7059 33.7483 39.7087 33.7467C39.7114 33.7451 39.7142 33.7435 39.717 33.7419C39.7197 33.7403 39.7225 33.7387 39.7252 33.7371C39.7279 33.7356 39.7306 33.734 39.7333 33.7324C39.736 33.7309 39.7387 33.7293 39.7413 33.7278C39.744 33.7263 39.7466 33.7248 39.7492 33.7232C39.7519 33.7217 39.7545 33.7202 39.757 33.7187C39.7596 33.7172 39.7622 33.7158 39.7648 33.7143C39.7673 33.7128 39.7699 33.7113 39.7724 33.7099C39.7749 33.7084 39.7774 33.707 39.7799 33.7055C39.7824 33.7041 39.7849 33.7027 39.7873 33.7012C39.7898 33.6998 39.7922 33.6984 39.7946 33.697C39.7971 33.6956 39.7995 33.6942 39.8019 33.6929C39.8043 33.6915 39.8066 33.6901 39.809 33.6887C39.8113 33.6874 39.8137 33.686 39.816 33.6847C39.8183 33.6833 39.8206 33.682 39.8229 33.6807C39.8252 33.6794 39.8275 33.6781 39.8297 33.6768C39.832 33.6755 39.8342 33.6742 39.8365 33.6729C39.8387 33.6716 39.8409 33.6703 39.8431 33.6691C39.8452 33.6678 39.8474 33.6666 39.8496 33.6653C39.8517 33.6641 39.8539 33.6628 39.856 33.6616C39.8581 33.6604 39.8602 33.6592 39.8623 33.658C39.8644 33.6568 39.8664 33.6556 39.8685 33.6544C39.8705 33.6532 39.8725 33.652 39.8746 33.6509C39.8766 33.6497 39.8786 33.6486 39.8805 33.6474C39.8825 33.6463 39.8845 33.6452 39.8864 33.644C39.8884 33.6429 39.8903 33.6418 39.8922 33.6407C39.8941 33.6396 39.896 33.6385 39.8979 33.6374C39.8997 33.6363 39.9016 33.6353 39.9034 33.6342C39.9053 33.6332 39.9071 33.6321 39.9089 33.6311C39.9107 33.63 39.9125 33.629 39.9142 33.628C39.916 33.627 39.9178 33.6259 39.9195 33.6249C39.9212 33.6239 39.9229 33.623 39.9246 33.622C39.9263 33.621 39.928 33.62 39.9297 33.6191C39.9313 33.6181 39.933 33.6172 39.9346 33.6162C39.9362 33.6153 39.9378 33.6144 39.9394 33.6135C39.941 33.6125 39.9425 33.6116 39.9441 33.6107C39.9456 33.6098 39.9472 33.609 39.9487 33.6081C39.9502 33.6072 39.9517 33.6064 39.9532 33.6055C39.9546 33.6046 39.9561 33.6038 39.9575 33.603C39.959 33.6021 39.9604 33.6013 39.9618 33.6005C39.9632 33.5997 39.9646 33.5989 39.966 33.5981C39.9673 33.5973 39.9687 33.5965 39.97 33.5958C39.9713 33.595 39.9726 33.5943 39.9739 33.5935C39.9752 33.5928 39.9765 33.592 39.9778 33.5913C39.979 33.5906 39.9803 33.5899 39.9815 33.5892C39.9827 33.5885 39.9839 33.5878 39.9851 33.5871C39.9862 33.5864 39.9874 33.5857 39.9886 33.5851C39.9897 33.5844 39.9908 33.5838 39.9919 33.5831C39.993 33.5825 39.9941 33.5819 39.9952 33.5812C39.9962 33.5806 39.9973 33.58 39.9983 33.5794C39.9994 33.5788 40.0004 33.5783 40.0014 33.5777C40.0023 33.5771 40.0033 33.5765 40.0043 33.576C40.0052 33.5754 40.0062 33.5749 40.0071 33.5744C40.008 33.5739 40.0089 33.5733 40.0098 33.5728C40.0106 33.5723 40.0115 33.5718 40.0123 33.5713C40.0132 33.5709 40.014 33.5704 40.0148 33.5699C40.0156 33.5695 40.0164 33.569 40.0171 33.5686C40.0179 33.5681 40.0186 33.5677 40.0193 33.5673C40.0201 33.5669 40.0208 33.5665 40.0215 33.5661C40.0221 33.5657 40.0228 33.5653 40.0234 33.5649C40.0241 33.5646 40.0247 33.5642 40.0253 33.5638C40.0259 33.5635 40.0265 33.5632 40.0271 33.5628C40.0276 33.5625 40.0282 33.5622 40.0287 33.5619C40.0292 33.5616 40.0297 33.5613 40.0302 33.561C40.0307 33.5607 40.0312 33.5605 40.0316 33.5602C40.0321 33.56 40.0325 33.5597 40.0329 33.5595C40.0333 33.5592 40.0337 33.559 40.0341 33.5588C40.0344 33.5586 40.0348 33.5584 40.0351 33.5582C40.0354 33.558 40.0357 33.5578 40.036 33.5577C40.0363 33.5575 40.0366 33.5573 40.0368 33.5572C40.0371 33.5571 40.0373 33.5569 40.0375 33.5568C40.0377 33.5567 40.0379 33.5566 40.0381 33.5565C40.0382 33.5564 40.0384 33.5563 40.0385 33.5562C40.0386 33.5562 40.0387 33.5561 40.0388 33.5561C40.0389 33.556 40.0389 33.556 40.039 33.5559C40.039 33.5559 40.0391 33.5559 40.0391 33.5559L40.5391 34.4219ZM31.8634 39.6607L30.6905 49.201L29.6979 49.079L30.8709 39.5386L31.8634 39.6607ZM31.0032 49.7271L55.3823 59.3482L55.0152 60.2783L30.6361 50.6573L31.0032 49.7271ZM30.6905 49.201C30.6627 49.4271 30.7913 49.6435 31.0032 49.7271L30.6361 50.6573C30.0003 50.4064 29.6145 49.7574 29.6979 49.079L30.6905 49.201ZM32.1078 39.2897C31.9729 39.3676 31.8827 39.5037 31.8634 39.6607L30.8709 39.5386C30.9282 39.0725 31.199 38.6597 31.6078 38.4237L32.1078 39.2897Z" fill="black"/>
<path d="M36.6988 46.1209L36.4006 46.5223L36.181 46.3591L36.2 46.0862L36.6988 46.1209ZM55.2425 59.2726C55.4642 59.4373 55.5104 59.7505 55.3458 59.9722C55.1811 60.1938 54.8679 60.2401 54.6462 60.0754L55.2425 59.2726ZM37.9359 35.5385L37.1976 46.1556L36.2 46.0862L36.9383 35.4692L37.9359 35.5385ZM36.9969 45.7195L55.2425 59.2726L54.6462 60.0754L36.4006 46.5223L36.9969 45.7195Z" fill="black"/>
<path d="M52.4626 37.0206L52.9593 36.9631L52.9279 36.6913L52.682 36.5713L52.4626 37.0206ZM54.5805 59.6559C54.6123 59.9302 54.8604 60.1268 55.1347 60.095C55.409 60.0632 55.6057 59.8151 55.5739 59.5408L54.5805 59.6559ZM42.6795 32.8008L52.2433 37.4699L52.682 36.5713L43.1182 31.9021L42.6795 32.8008ZM51.966 37.0781L54.5805 59.6559L55.5739 59.5408L52.9593 36.9631L51.966 37.0781Z" fill="black"/>
<path d="M30.1953 49.9206C30.1938 49.9214 49.4243 38.8187 59.0403 33.2669" stroke="black" stroke-linecap="round"/>
<path d="M34.3519 17.6957C34.4326 17.8779 34.5249 18.0854 34.6251 18.3091" stroke="black" stroke-linecap="round"/>
<path d="M14.5008 25.0795C14.675 25.1761 14.8739 25.2857 15.0888 25.4037" stroke="black" stroke-linecap="round"/>
<path d="M13.1624 54.6527L19.8645 51.8957" stroke="black" stroke-linecap="round"/>
<path d="M71.1254 26.6313L64.7053 29.9931" stroke="black" stroke-linecap="round"/>
<path d="M56.8751 12.8944L54.7506 19.823" stroke="black" stroke-linecap="round"/>
<path d="M35.9574 13.7723L38.9259 20.3834" stroke="black" stroke-linecap="round"/>
<path d="M18.5434 27.3626L24.9008 30.8415" stroke="black" stroke-linecap="round"/>
<path d="M35.0796 69.5255L37.4844 62.6891" stroke="black" stroke-linecap="round"/>
<path d="M72.9832 44.9153L65.7477 45.3233" stroke="black" stroke-linecap="round"/>
</svg>
