<svg width="71" height="49" viewBox="0 0 71 49" fill="none" xmlns="http://www.w3.org/2000/svg">
<path d="M27.3602 40.8508C26.2601 40.8508 23.5813 40.8508 22.1157 40.8508C21.5634 40.8508 21.1172 40.403 21.1172 39.8508V17.6353C21.1172 17.083 21.5649 16.6353 22.1172 16.6353H51.1433C51.6956 16.6353 52.1433 17.083 52.1433 17.6353V39.8508C52.1433 40.403 51.6956 40.8508 51.1433 40.8508H35.306" stroke="black" stroke-linecap="round"/>
<circle cx="31.3328" cy="43.4993" r="4.41877" stroke="black"/>
<circle cx="58.1922" cy="43.4993" r="4.41877" stroke="black"/>
<circle cx="58.1949" cy="43.4995" r="1.95258" stroke="black"/>
<circle cx="31.3276" cy="43.4995" r="1.95258" stroke="black"/>
<path d="M52.1484 24.2026H64.3778C64.7336 24.2026 65.0626 24.3917 65.2417 24.699L69.7956 32.5105C69.8847 32.6634 69.9317 32.8372 69.9317 33.0141V43.2561C69.9317 43.8084 69.484 44.2561 68.9317 44.2561H62.7427" stroke="black" stroke-linecap="round" stroke-linejoin="round"/>
<path d="M53.4691 44.2559L35.875 44.2559" stroke="black" stroke-linecap="round" stroke-linejoin="round"/>
<path d="M61.7594 28.3647H56.1641C55.6118 28.3647 55.1641 28.8125 55.1641 29.3647V31.5268C55.1641 32.0791 55.6118 32.5268 56.1641 32.5268H62.9387C63.6978 32.5268 64.1801 31.7143 63.8166 31.0479L62.6373 28.8859C62.4621 28.5646 62.1253 28.3647 61.7594 28.3647Z" stroke="black" stroke-linecap="round" stroke-linejoin="round"/>
<path d="M34.9753 15.7876C36.828 19.3283 36.7878 22.3574 34.1399 23.1822C32.298 23.7559 29.9356 23.6262 28.027 22.3535C25.9233 20.9508 23.1118 21.4962 21.1656 21.5888C18.0521 21.7371 15.639 20.1175 15.3742 18.8681C15.1269 17.7011 18.2522 18.0852 15.9645 16.9958C13.6768 15.9063 11.5787 14.6863 11.9581 13.2953C12.3375 11.9042 18.9457 13.8915 13.7499 11.039C8.55417 8.18641 9.54799 3.14077 11.6874 4.97456C13.399 6.4416 15.2519 7.07991 15.9645 7.21568C22.3563 8.43363 30.8626 7.92771 34.9753 15.7876Z" fill="white" stroke="black" stroke-linecap="round"/>
<path d="M18.2734 12.7285C19.571 13.366 22.3037 13.8783 24.2908 13.9803" stroke="black" stroke-linecap="round"/>
<path d="M18.7266 17.2012C20.1434 17.3233 23.1889 17.531 24.036 17.3844" stroke="black" stroke-linecap="round"/>
<path d="M2.26562 1C3.05506 1.32153 4.7593 1.99092 5.26073 2.09626" stroke="black" stroke-linecap="round"/>
<path d="M1.00781 10.7612C1.85343 10.8686 3.67258 11.0764 4.18423 11.0491" stroke="black" stroke-linecap="round"/>
<path d="M4.07031 20.4937C4.89212 20.2673 6.65117 19.7591 7.11289 19.537" stroke="black" stroke-linecap="round"/>
</svg>
