<svg width="76" height="57" viewBox="0 0 76 57" fill="none" xmlns="http://www.w3.org/2000/svg">
<path d="M46.2361 33.232L22.819 52.5857L1.98296 49.5679C1.29407 49.4681 0.915323 48.7125 1.24756 48.1009L6.98264 37.5422L24.8517 22.1312C25.0571 21.954 25.3256 21.8679 25.5957 21.8926L39.2974 23.1434L46.3743 31.8295C46.7214 32.2556 46.6597 32.8819 46.2361 33.232Z" fill="white"/>
<path d="M22.819 52.5857L46.2361 33.232C46.6597 32.8819 46.7214 32.2556 46.3743 31.8295L39.2974 23.1434M22.819 52.5857L1.98296 49.5679C1.29407 49.4681 0.915323 48.7125 1.24756 48.1009L6.98264 37.5422M22.819 52.5857L21.321 39.0466M39.2974 23.1434L25.5957 21.8926C25.3256 21.8679 25.0571 21.954 24.8517 22.1312L6.98264 37.5422M39.2974 23.1434L21.321 39.0466M6.98264 37.5422L21.321 39.0466" stroke="black" stroke-linecap="round"/>
<path d="M74.9158 36.646L51.4987 55.9998L30.6626 52.9819C29.9738 52.8821 29.595 52.1266 29.9272 51.5149L35.6623 40.9563L53.5314 25.5452C53.7367 25.3681 54.0053 25.282 54.2754 25.3066L67.9771 26.5575L75.054 35.2436C75.4011 35.6696 75.3394 36.2959 74.9158 36.646Z" fill="white"/>
<path d="M51.4987 55.9998L74.9158 36.646C75.3394 36.2959 75.4011 35.6696 75.054 35.2436L67.9771 26.5575M51.4987 55.9998L30.6626 52.9819C29.9738 52.8821 29.595 52.1266 29.9272 51.5149L35.6623 40.9563M51.4987 55.9998L50.0007 42.4606M67.9771 26.5575L54.2754 25.3066C54.0053 25.282 53.7367 25.3681 53.5314 25.5452L35.6623 40.9563M67.9771 26.5575L50.0007 42.4606M35.6623 40.9563L50.0007 42.4606" stroke="black" stroke-linecap="round"/>
<path d="M66.0486 18.2076L42.6315 37.5613L21.7955 34.5434C21.1066 34.4437 20.7278 33.6881 21.0601 33.0765L26.7951 22.5178L44.6642 7.10676C44.8696 6.92963 45.1381 6.84352 45.4082 6.86817L59.1099 8.11903L66.1868 16.8051C66.5339 17.2311 66.4722 17.8575 66.0486 18.2076Z" fill="white"/>
<path d="M42.6315 37.5613L66.0486 18.2076C66.4722 17.8575 66.5339 17.2311 66.1868 16.8051L59.1099 8.11903M42.6315 37.5613L21.7955 34.5434C21.1066 34.4437 20.7278 33.6881 21.0601 33.0765L26.7951 22.5178M42.6315 37.5613L41.1335 24.0222M59.1099 8.11903L45.4082 6.86817C45.1381 6.84352 44.8696 6.92963 44.6642 7.10676L26.7951 22.5178M59.1099 8.11903L41.1335 24.0222M26.7951 22.5178L41.1335 24.0222" stroke="black" stroke-linecap="round"/>
<path d="M57.0636 2.68048L57.2336 3.35802C57.7469 5.40355 59.2285 7.06852 61.2006 7.81586C61.2101 7.81945 61.2146 7.82275 61.2164 7.82416C61.2182 7.82567 61.2195 7.8271 61.2206 7.82878C61.2231 7.83266 61.2267 7.8412 61.2267 7.85366C61.2267 7.86612 61.2231 7.87466 61.2206 7.87854C61.2195 7.88022 61.2182 7.88165 61.2164 7.88316C61.2146 7.88457 61.2101 7.88787 61.2006 7.89146C59.2285 8.6388 57.7469 10.3038 57.2336 12.3493L57.0636 13.0268C57.0502 13.0801 57.0271 13.105 57.0073 13.1194C56.9834 13.1367 56.9481 13.1494 56.9064 13.1494C56.8648 13.1494 56.8295 13.1367 56.8056 13.1194C56.7858 13.105 56.7627 13.0801 56.7493 13.0268L56.5793 12.3493C56.066 10.3038 54.5843 8.63881 52.6123 7.89146C52.6028 7.88787 52.5983 7.88457 52.5965 7.88316C52.5946 7.88165 52.5934 7.88022 52.5923 7.87854C52.5898 7.87466 52.5862 7.86612 52.5862 7.85366C52.5862 7.8412 52.5898 7.83266 52.5923 7.82878C52.5934 7.8271 52.5946 7.82567 52.5965 7.82416C52.5983 7.82275 52.6028 7.81945 52.6123 7.81586C54.5843 7.06852 56.066 5.40355 56.5793 3.35802L56.7493 2.68048C56.7627 2.62722 56.7858 2.60233 56.8056 2.58795C56.8295 2.5706 56.8648 2.55791 56.9064 2.55791C56.9481 2.55791 56.9834 2.5706 57.0073 2.58795C57.0271 2.60233 57.0502 2.62722 57.0636 2.68048Z" fill="white" stroke="black"/>
<path d="M8.57138 32.0462L8.7414 32.7237C9.2547 34.7693 10.7364 36.4342 12.7084 37.1816C12.7179 37.1852 12.7224 37.1885 12.7242 37.1899C12.7261 37.1914 12.7273 37.1928 12.7284 37.1945C12.7309 37.1984 12.7345 37.2069 12.7345 37.2194C12.7345 37.2318 12.7309 37.2404 12.7284 37.2443C12.7273 37.2459 12.7261 37.2474 12.7242 37.2489C12.7224 37.2503 12.7179 37.2536 12.7084 37.2572C10.7364 38.0045 9.2547 39.6695 8.7414 41.715L8.57138 42.3926C8.55802 42.4458 8.53494 42.4707 8.5151 42.4851C8.49117 42.5024 8.45593 42.5151 8.41426 42.5151C8.37258 42.5151 8.33734 42.5024 8.31341 42.4851C8.29357 42.4707 8.27049 42.4458 8.25713 42.3926L8.08711 41.715C7.57381 39.6695 6.09216 38.0045 4.12007 37.2572C4.1106 37.2536 4.10607 37.2503 4.10432 37.2489C4.10245 37.2474 4.10121 37.2459 4.10011 37.2443C4.09759 37.2404 4.09397 37.2318 4.09397 37.2194C4.09397 37.2069 4.09759 37.1984 4.10011 37.1945C4.10121 37.1928 4.10245 37.1914 4.10432 37.1899C4.10607 37.1885 4.1106 37.1852 4.12007 37.1816C6.09216 36.4342 7.57381 34.7693 8.08711 32.7237L8.25713 32.0462C8.27049 31.9929 8.29357 31.9681 8.31341 31.9537C8.33734 31.9363 8.37258 31.9236 8.41426 31.9236C8.45593 31.9236 8.49117 31.9363 8.5151 31.9537C8.53494 31.9681 8.55802 31.9929 8.57138 32.0462Z" fill="white" stroke="black"/>
</svg>
