<svg width="55" height="69" viewBox="0 0 55 69" fill="none" xmlns="http://www.w3.org/2000/svg">
<path d="M38.5078 44.3013L41.3428 51.0552" stroke="black" stroke-linecap="round"/>
<path d="M22.8956 52.3465C21.6989 52.17 20.1389 51.9412 19.2357 51.8128C18.8375 51.7561 18.4482 51.9487 18.2473 52.297L18.0472 52.6438C17.6988 53.2476 18.0596 54.0136 18.7469 54.1296L22.5821 54.7771C23.1923 54.8801 23.7486 54.4099 23.7486 53.7911V53.3354C23.7486 52.8397 23.386 52.4189 22.8956 52.3465Z" stroke="black" stroke-linecap="round"/>
<path d="M29.3303 39.9656C28.2464 35.7687 26.0119 26.3243 25.7451 24.7901C25.4116 22.8723 25.2448 18.6198 26.9958 17.786C28.7468 16.9522 32.1653 16.9522 33.1659 17.786C34.1665 18.6198 36.3344 21.4548 34.7502 26.291C33.1659 31.1271 30.1642 41.2997 30.0808 41.8834C30.0174 42.3273 31.4058 53.4066 32.2116 59.7046C32.2793 60.2331 32.7475 60.6119 33.2787 60.5702C37.7797 60.2167 45.3857 59.6011 46.0067 59.4769C46.8405 59.3102 46.8405 58.2262 46.8405 58.0594C46.8405 57.8927 45.5636 45.6075 44.9227 41.8834C44.7228 40.7212 43.672 35.6297 43.672 35.1294C43.672 34.7292 43.672 33.4062 43.672 32.7947" stroke="black" stroke-linecap="round"/>
<path d="M29.9999 42.3831C29.9444 41.7161 30.7837 39.915 34.5859 38.0473C37.8844 36.427 39.1623 34.5222 39.4975 33.4652C39.5809 33.2023 39.4855 32.927 39.3032 32.7201L36.329 29.3456C35.836 28.7863 36.1065 27.9036 36.8283 27.7164L40.7876 26.6899C41.4109 26.5283 41.7213 25.8283 41.4225 25.2579L38.4711 19.6235C38.3843 19.4577 38.2526 19.3195 38.091 19.2248L33.685 16.642C33.5644 16.5713 33.4308 16.5265 33.2917 16.5118C31.2461 16.2957 27.3165 16.0763 26.4146 16.7849C25.3362 17.6322 23.0482 19.191 20.2078 23.5649C19.843 24.1267 20.1469 24.8738 20.7957 25.0404L23.988 25.86C24.7333 26.0514 24.9915 26.976 24.4479 27.5206C23.1376 28.8334 21.4814 30.4537 20.7446 31.0432C19.5086 32.032 27.4744 35.4637 28.7886 38.8437C28.8199 38.9243 28.8577 38.9999 28.9011 39.0746C29.166 39.5303 29.8759 41.0903 29.4997 44.551C29.0828 48.3866 26.8315 60.3102 26.9149 60.5603C26.9983 60.8105 16.5755 59.6431 15.4916 58.0589C14.4076 56.4746 16.4922 44.9679 16.5755 41.9662C16.6422 39.5648 16.6033 35.9071 16.5755 34.3784" stroke="black" stroke-linecap="round"/>
<path d="M24.2663 18.5824L17.1698 22.0794C16.9015 22.2116 16.7076 22.4519 16.6395 22.7432C14.9373 30.0331 11.6527 44.7179 11.3262 48.6369C11.0163 52.3546 10.5387 61.3003 10.2941 66.1848C10.2655 66.7556 10.7209 67.231 11.2925 67.231H14.3861C14.9484 67.231 15.4001 66.7681 15.3859 66.206C15.2981 62.7288 15.1617 57.2076 15.1617 56.7249" stroke="black" stroke-linecap="round"/>
<path d="M25.1852 12.2853C25.1852 11.2602 25.1169 8.93009 24.9223 8.7367C24.6791 8.49496 24.0003 8.26322 23.7924 7.31711C23.5843 6.37025 23.9986 4.91692 25.5011 5.26656C26.6314 5.5296 26.5688 6.38729 26.2787 6.96742" stroke="black" stroke-linecap="round"/>
<path d="M20.5915 8.07195C20.5915 7.04679 20.5232 4.71671 20.3286 4.52332C20.0854 4.28159 19.4065 4.04985 19.1986 3.10373C18.9905 2.15687 19.4049 0.70354 20.9074 1.05318C22.0377 1.31622 21.975 2.17391 21.6849 2.75404" stroke="black" stroke-linecap="round"/>
<path d="M38.3359 19.3979L44.5938 22.0022C44.6509 22.026 44.7062 22.0542 44.7556 22.0912C45.4743 22.6301 45.8475 23.9305 46.4306 26.4571C46.6307 27.3243 49.4832 42.582 51.2064 50.2809L53.6898 66.116C53.778 66.6783 53.3797 67.2008 52.8141 67.2646L49.6334 67.6237C49.1014 67.6838 48.6164 67.3142 48.5333 66.7852L46.2123 52.0097" stroke="black" stroke-linecap="round"/>
<path d="M33.0289 15.3536L28.3757 12.6259C28.255 12.5552 28.1214 12.5104 27.9824 12.4957C25.9367 12.2796 22.0071 12.0602 21.1052 12.7688C19.9379 13.686 20.2641 13.7316 18.4297 14.8156" stroke="black" stroke-linecap="round"/>
<path d="M18.3672 14.853L11.7898 18.0634C11.5198 18.1952 11.3245 18.4364 11.2562 18.7289C9.55377 26.0196 6.26989 40.7018 5.94334 44.6203C5.63353 48.3381 5.15585 57.2837 4.91127 62.1682C4.88269 62.739 5.33812 63.2145 5.90966 63.2145H10.029" stroke="black" stroke-linecap="round"/>
<path d="M33.0469 15.3647L38.9393 17.8685C39.1709 17.9669 39.3581 18.1488 39.4583 18.3797C39.7881 19.1396 39.7596 19.2102 39.9354 19.9721" stroke="black" stroke-linecap="round"/>
<path d="M29.1695 11.1407L24.5163 8.41301C24.3957 8.34229 24.262 8.29749 24.123 8.2828C22.0774 8.06666 18.1478 7.84727 17.2459 8.55589C16.0785 9.47309 16.4047 9.51869 14.5703 10.6027" stroke="black" stroke-linecap="round"/>
<path d="M14.5079 10.64L7.93043 13.8504C7.66044 13.9821 7.46513 14.2233 7.39682 14.5159C5.69439 21.8065 2.41051 36.4887 2.08396 40.4073C1.77416 44.125 1.29648 53.0706 1.0519 57.9552C1.02331 58.526 1.47875 59.0014 2.05028 59.0014H5.11413" stroke="black" stroke-linecap="round"/>
<path d="M29.1875 11.1519L35.0799 13.6556C35.3115 13.754 35.4987 13.9359 35.5975 14.1673C36.003 15.1163 36.252 15.9091 36.4302 16.6811" stroke="black" stroke-linecap="round"/>
</svg>
