<svg width="1178" height="448" viewBox="0 0 1178 448" fill="none" xmlns="http://www.w3.org/2000/svg">
<rect width="1178" height="448" fill="#898989"/>
<path d="M474.967 259.22C469.751 259.22 464.742 258.533 459.939 257.161C455.204 255.72 451.327 253.867 448.308 251.603V243.06C451.19 245.53 454.93 247.657 459.527 249.441C464.468 251.225 469.443 252.117 474.452 252.117C480.147 252.117 484.813 250.882 488.45 248.412C492.087 245.942 493.906 242.648 493.906 238.531C494.317 234.688 492.327 231.429 487.936 228.752C487.044 228.066 485.603 227.38 483.613 226.694L479.084 225.15C478.878 225.081 478.466 224.978 477.849 224.841C477.231 224.635 476.545 224.429 475.79 224.223C475.104 223.949 474.383 223.709 473.628 223.503C469.374 222.268 466.835 221.513 466.012 221.239C463.816 220.484 461.689 219.626 459.63 218.665C457.366 217.567 455.581 216.367 454.278 215.063C451.258 211.906 449.749 207.995 449.749 203.329C449.749 197.908 451.945 193.448 456.336 189.948C460.728 186.448 466.835 184.699 474.658 184.699C483.304 184.699 490.783 186.689 497.096 190.668V198.491C489.96 194.031 482.549 191.801 474.864 191.801C469.305 191.801 465.017 192.899 461.997 195.094C458.978 197.29 457.469 200.104 457.469 203.535C457.057 206.279 458.601 208.99 462.1 211.666C462.649 212.146 463.782 212.695 465.497 213.313L468.997 214.651L473.423 215.886L477.746 217.121C481.52 218.288 483.887 219.043 484.848 219.386C486.838 220.072 488.931 220.998 491.126 222.165C493.391 223.331 495.244 224.635 496.685 226.076C500.047 229.164 501.728 233.281 501.728 238.428C501.728 244.878 499.121 249.956 493.906 253.661C488.759 257.367 482.446 259.22 474.967 259.22ZM522.101 257.984H514.175L546.289 185.522H553.392L585.609 257.984H577.58L568.625 238.119H530.85L522.101 257.984ZM549.789 195.094L533.423 231.429H566.155L549.789 195.094ZM603.614 257.984H594.659L623.582 218.871L599.394 185.934H608.349L628.214 212.695L648.182 185.934H656.931L632.743 218.768L661.666 257.984H652.608L628.111 224.944L603.614 257.984ZM678.65 257.984H670.725L702.839 185.522H709.941L742.158 257.984H734.129L725.174 238.119H687.399L678.65 257.984ZM706.338 195.094L689.973 231.429H722.704L706.338 195.094ZM766.03 257.984H758.414V185.934H790.63C797.63 185.934 803.154 187.718 807.202 191.286C811.319 194.786 813.378 199.52 813.378 205.49C813.378 210.637 811.868 214.926 808.849 218.357C805.898 221.787 801.747 223.949 796.394 224.841L819.657 257.984H810.702L788.057 225.562H766.03V257.984ZM766.03 192.83V218.665H790.219C795.159 218.665 798.968 217.567 801.644 215.372C804.389 213.107 805.761 209.916 805.761 205.799C805.761 201.682 804.389 198.491 801.644 196.227C798.899 193.962 795.091 192.83 790.219 192.83H766.03Z" fill="white"/>
<path d="M277.834 205.293C278.319 206.36 284.904 231.997 288.136 244.683" stroke="white" stroke-width="4.28873" stroke-linecap="round"/>
<path d="M261.715 217.897L268.381 241.895" stroke="white" stroke-width="4.28873" stroke-linecap="round"/>
<path d="M307.7 166.4C304.496 169.764 297.928 168.323 297.928 162.235C297.928 151.823 317.792 150.701 323.239 162.235C325.933 167.94 328.525 178.735 321.858 199.662C314.349 223.235 298.889 257.871 317.311 271.487C330.711 281.391 345.353 266.488 346.69 255.058" stroke="white" stroke-width="4.28873" stroke-linecap="round"/>
<path d="M291.349 159.581C284.769 164.665 279.042 181.644 303.613 204.148C335.618 233.461 351.721 250.376 359.923 254.666C370.336 260.113 382.698 260.878 391.642 250.181C399.811 240.409 393.427 228.416 384.753 228.715C376.079 229.014 370.496 238.006 374.02 244.094C377.545 250.181 385.271 248.259 386.515 244.094" stroke="white" stroke-width="4.28873" stroke-linecap="round"/>
<path d="M288.609 201.597L307.171 217.397C307.537 217.708 307.678 218.21 307.529 218.666L300.114 241.354C300.001 241.7 299.732 241.976 299.389 242.097C283.259 247.785 270.299 243.987 259.562 238.508C253.65 235.492 245.919 236.113 240.467 236.687C240.345 236.699 240.288 236.542 240.391 236.474C245.189 233.325 250.068 232.386 254.53 225.869C264.778 210.899 274.8 205.334 287.495 201.369C287.88 201.249 288.302 201.336 288.609 201.597Z" stroke="white" stroke-width="4.28873" stroke-linecap="round"/>
<path d="M348.165 228.014C358.594 225.048 364.645 214.188 361.679 203.759C358.712 193.329 347.853 187.279 337.423 190.245C335.211 190.874 333.195 191.858 331.421 193.119L326.123 213.87L341.548 228.728C343.72 228.866 345.952 228.643 348.165 228.014Z" stroke="white" stroke-width="4.28873"/>
<path d="M363.364 210.899C364.771 210.971 368.089 211.765 370.102 214.365" stroke="white" stroke-width="4.28873" stroke-linecap="round"/>
<path d="M366.562 194.609C365.94 195.873 363.896 198.606 360.704 199.416" stroke="white" stroke-width="4.28873" stroke-linecap="round"/>
</svg>
