<svg width="304" height="265" viewBox="0 0 304 265" fill="none" xmlns="http://www.w3.org/2000/svg">
<rect width="304" height="265" fill="#fff0"/>
<path d="M109.834 123.293C110.319 124.36 116.904 149.997 120.136 162.683" stroke="white" stroke-width="4.28873" stroke-linecap="round"/>
<path d="M93.7151 135.897L100.381 159.895" stroke="white" stroke-width="4.28873" stroke-linecap="round"/>
<path d="M139.7 84.4003C136.496 87.7643 129.928 86.3226 129.928 80.2352C129.928 69.8227 149.792 68.7014 155.239 80.2353C157.933 85.9403 160.525 96.7352 153.858 117.662C146.349 141.235 130.889 175.871 149.311 189.487C162.711 199.391 177.353 184.488 178.69 173.058" stroke="white" stroke-width="4.28873" stroke-linecap="round"/>
<path d="M123.349 77.5806C116.769 82.6655 111.042 99.6444 135.613 122.148C167.618 151.461 183.721 168.376 191.923 172.666C202.336 178.113 214.698 178.878 223.642 168.181C231.811 158.409 225.427 146.416 216.753 146.715C208.079 147.014 202.496 156.006 206.02 162.094C209.545 168.181 217.271 166.259 218.515 162.094" stroke="white" stroke-width="4.28873" stroke-linecap="round"/>
<path d="M120.609 119.597L139.171 135.397C139.537 135.708 139.678 136.21 139.529 136.666L132.114 159.354C132.001 159.7 131.732 159.976 131.389 160.097C115.259 165.785 102.299 161.987 91.5616 156.508C85.6503 153.492 77.9191 154.113 72.4669 154.687C72.3446 154.699 72.2882 154.542 72.3911 154.474C77.1891 151.325 82.0681 150.386 86.5296 143.869C96.7782 128.899 106.8 123.334 119.495 119.369C119.88 119.249 120.302 119.336 120.609 119.597Z" stroke="white" stroke-width="4.28873" stroke-linecap="round"/>
<path d="M180.165 146.014C190.594 143.048 196.645 132.188 193.679 121.759C190.712 111.329 179.853 105.279 169.423 108.245C167.211 108.874 165.195 109.858 163.421 111.119L158.123 131.87L173.548 146.728C175.72 146.866 177.952 146.643 180.165 146.014Z" stroke="white" stroke-width="4.28873"/>
<path d="M195.364 128.899C196.771 128.971 200.089 129.765 202.102 132.365" stroke="white" stroke-width="4.28873" stroke-linecap="round"/>
<path d="M198.562 112.609C197.94 113.873 195.896 116.606 192.704 117.416" stroke="white" stroke-width="4.28873" stroke-linecap="round"/>
</svg>
