<svg width="46" height="45" viewBox="0 0 46 45" fill="none" xmlns="http://www.w3.org/2000/svg">
<g id="Group">
<path id="Ellipse" d="M44.4905 22.4999C44.4905 34.3638 34.7651 43.9999 22.7453 43.9999C10.7254 43.9999 1 34.3638 1 22.4999C1 10.6361 10.7254 1 22.7453 1C34.7651 1 44.4905 10.6361 44.4905 22.4999Z" fill="#fff0" stroke="white" stroke-width="2"/>
<g id="Mask Group">
<mask id="mask0_283_999" style="mask-type:alpha" maskUnits="userSpaceOnUse" x="0" y="0" width="46" height="45">
<ellipse id="Ellipse_2" cx="22.7453" cy="22.4999" rx="22.7453" ry="22.4999" fill="#fff"/>
</mask>
<g mask="url(#mask0_283_999)">
<path id="Vector" fill-rule="evenodd" clip-rule="evenodd" d="M1.71668 23.7201C0.6175 23.892 -0.400863 24.3965 -1.19843 25.1643C-1.99599 25.932 -2.53361 26.9252 -2.73738 28.0074C-2.94115 29.0897 -2.80108 30.2078 -2.33641 31.208C-1.87173 32.2083 -1.10528 33.0417 -0.142388 33.5936C0.820501 34.1455 1.93255 34.3888 3.04092 34.2901C4.14928 34.1915 5.19955 33.7556 6.04735 33.0425C6.89516 32.3294 7.49888 31.3741 7.77554 30.3078C8.0522 29.2415 7.98822 28.1167 7.59239 27.0878C7.15361 25.9439 6.32976 24.9844 5.25956 24.371C4.18936 23.7576 2.93817 23.5277 1.71668 23.7201ZM3.67234 31.6071C3.11806 31.8358 2.50527 31.8869 1.9201 31.7533C1.33492 31.6197 0.806782 31.3081 0.409898 30.8622C0.0130149 30.4163 -0.232657 29.8587 -0.292591 29.2675C-0.352524 28.6764 -0.223706 28.0816 0.0757596 27.5666C0.375225 27.0517 0.830283 26.6425 1.37698 26.3966C1.92367 26.1507 2.53452 26.0804 3.12367 26.1957C3.71282 26.3109 4.25065 26.6059 4.66158 27.0391C5.07251 27.4724 5.33588 28.0221 5.41467 28.611C5.49772 29.2304 5.37203 29.8597 5.05706 30.4013C4.74208 30.9429 4.25539 31.3667 3.67234 31.6071ZM9.18571 21.9586C9.00537 22.0068 8.83817 22.0943 8.69628 22.2145C8.55439 22.3347 8.44139 22.4847 8.36548 22.6536C8.28958 22.8225 8.25269 23.0059 8.2575 23.1907C8.2623 23.3754 8.30869 23.5568 8.39327 23.7216C8.66071 24.2572 9.29973 24.5022 9.88177 24.3479L13.2595 23.4526L9.86692 31.7271C9.8418 31.7882 9.83439 31.855 9.84551 31.9201C9.85663 31.9851 9.88584 32.0458 9.92987 32.0953C9.9739 32.1449 10.031 32.1813 10.0948 32.2005C10.1586 32.2197 10.2265 32.221 10.291 32.2042L18.5363 30.0187C19.1179 29.8645 19.5479 29.3363 19.5088 28.7401C19.4988 28.5555 19.4473 28.3756 19.3581 28.2132C19.2689 28.0508 19.1443 27.9102 18.9933 27.8014C18.8422 27.6927 18.6686 27.6187 18.485 27.5846C18.3014 27.5506 18.1124 27.5576 17.9318 27.6049L13.8164 28.6957L17.2063 20.4277C17.2317 20.366 17.2392 20.2985 17.2279 20.2328C17.2167 20.1671 17.1872 20.1059 17.1427 20.0559C17.0982 20.0059 17.0405 19.9691 16.9761 19.9497C16.9117 19.9304 16.8431 19.9291 16.778 19.9462L9.18571 21.9586ZM42.1408 13.2532C41.8852 13.3898 41.6844 13.6085 41.5716 13.8733C41.4587 14.1381 41.4406 14.4331 41.5202 14.7094L42.6032 18.7077L34.6574 15.288C34.5951 15.2613 34.5264 15.2525 34.4593 15.2627C34.3922 15.2729 34.3294 15.3015 34.278 15.3455C34.2267 15.3894 34.1889 15.4468 34.1691 15.511C34.1492 15.5752 34.1481 15.6437 34.1659 15.7085L36.4021 23.9641C36.4728 24.2428 36.6376 24.4893 36.8691 24.6628C37.1007 24.8363 37.3852 24.9264 37.6756 24.9183C37.8633 24.9099 38.0467 24.8599 38.2123 24.772C38.3778 24.6841 38.5214 24.5606 38.6322 24.4105C38.7431 24.2605 38.8185 24.0877 38.8529 23.905C38.8873 23.7222 38.8798 23.5342 38.8309 23.3547L37.7385 19.3218L45.6845 22.7416C45.7467 22.7683 45.8154 22.777 45.8824 22.7669C45.9495 22.7567 46.0123 22.728 46.0637 22.6841C46.115 22.6402 46.1527 22.5828 46.1726 22.5186C46.1924 22.4544 46.1935 22.386 46.1758 22.3212L43.9315 14.0355C43.883 13.8559 43.7945 13.6894 43.6723 13.5482C43.5502 13.407 43.3976 13.2948 43.2257 13.2197C43.0539 13.1446 42.8672 13.1087 42.6794 13.1145C42.4917 13.1203 42.3076 13.1677 42.1408 13.2532ZM25.6688 19.9171C28.439 19.1828 30.9011 20.0823 31.252 21.3777C31.6029 22.6731 29.9253 24.6699 27.1551 25.4041C24.3849 26.1384 21.9227 25.2389 21.5718 23.9435C21.221 22.6481 22.8986 20.6513 25.6688 19.9171ZM25.0183 17.5157C21.0086 18.5786 18.3821 21.7436 19.1517 24.585C19.9214 27.4264 23.7958 28.8683 27.8055 27.8055C31.8153 26.7426 34.4417 23.5776 33.672 20.7362C32.9024 17.8948 29.028 16.4529 25.0183 17.5157Z" fill="#fff"/>
</g>
</g>
</g>
</svg>
