<?xml version="1.0" standalone="no"?>
<!DOCTYPE svg PUBLIC "-//W3C//DTD SVG 20010904//EN"
 "http://www.w3.org/TR/2001/REC-SVG-20010904/DTD/svg10.dtd">
<svg version="1.0" xmlns="http://www.w3.org/2000/svg"
 width="512.000000pt" height="512.000000pt" viewBox="0 0 512.000000 512.000000"
 preserveAspectRatio="xMidYMid meet">

<g transform="translate(0.000000,512.000000) scale(0.100000,-0.100000)"
fill="#fff" stroke="none">
<path d="M4790 4781 c-171 -57 -4676 -1805 -4700 -1823 -131 -106 -113 -314
32 -389 21 -11 280 -110 575 -220 296 -110 539 -202 540 -203 2 -2 98 -308
214 -682 116 -373 219 -695 229 -715 58 -113 195 -160 306 -104 27 14 193 143
369 286 176 144 331 265 344 270 17 7 34 5 60 -8 20 -10 281 -197 581 -414
300 -218 564 -408 586 -423 49 -32 129 -44 190 -27 53 14 127 80 148 130 8 22
205 951 436 2063 466 2239 439 2083 376 2175 -64 93 -167 123 -286 84z m118
-216 c3 -39 -823 -4012 -839 -4031 -6 -8 -15 -14 -19 -14 -4 0 -274 194 -600
430 -642 466 -645 468 -755 457 -28 -3 -71 -15 -96 -26 -24 -12 -192 -143
-374 -291 -181 -149 -332 -270 -335 -270 -22 1 -55 98 -249 720 -120 388 -224
716 -231 731 -6 14 -20 30 -30 37 -10 6 -274 106 -587 223 -312 116 -574 218
-581 227 -10 13 -9 19 3 31 19 19 4653 1811 4675 1808 9 -1 16 -14 18 -32z"/>
<path d="M3860 3902 c-102 -52 -2131 -1310 -2163 -1341 -56 -52 -89 -123 -95
-201 -4 -60 5 -98 119 -500 132 -464 139 -481 209 -510 40 -17 111 -8 148 18
48 35 61 78 93 314 39 289 46 314 112 382 28 30 436 410 905 846 469 435 857
803 863 816 47 124 -75 236 -191 176z m-505 -561 c-17 -16 -293 -272 -615
-570 -322 -298 -605 -566 -629 -594 -68 -80 -98 -157 -118 -302 -10 -69 -20
-125 -24 -125 -3 0 -42 131 -88 290 -88 311 -90 328 -45 371 21 20 1530 957
1544 958 2 1 -9 -12 -25 -28z"/>
<path d="M4193 2576 c-32 -27 -53 -86 -53 -151 0 -81 108 -128 165 -71 48 48
61 167 22 211 -34 40 -94 45 -134 11z"/>
<path d="M4086 2098 c-31 -32 -35 -46 -149 -573 -64 -297 -117 -557 -117 -578
0 -85 104 -130 163 -71 15 14 28 33 31 43 3 9 57 259 122 557 129 595 129 599
71 634 -48 29 -84 26 -121 -12z"/>
</g>
</svg>
