<svg width="45" height="45" viewBox="0 0 45 45" fill="none" xmlns="http://www.w3.org/2000/svg">
<path d="M22.5 0C10.0744 0 0 10.0744 0 22.5C0 26.721 1.18564 30.6564 3.20801 34.032L0.201416 45L11.4038 42.0593C14.68 43.922 18.4622 45 22.5 45C34.9256 45 45 34.9256 45 22.5C45 10.0744 34.9256 0 22.5 0ZM14.7986 12.0044C15.1642 12.0044 15.5399 12.0022 15.8643 12.019C16.2655 12.0284 16.7022 12.0578 17.1204 12.9822C17.6172 14.0809 18.6991 16.8373 18.8379 17.1167C18.9766 17.3961 19.075 17.7252 18.8818 18.0908C18.6981 18.4658 18.6025 18.6928 18.3325 19.0247C18.0531 19.3472 17.747 19.7477 17.4939 19.9915C17.2145 20.2708 16.926 20.5772 17.2485 21.134C17.571 21.6909 18.6911 23.5165 20.3467 24.9902C22.4748 26.8915 24.2704 27.4758 24.8291 27.7551C25.3878 28.0345 25.7114 27.991 26.0339 27.616C26.3658 27.2503 27.4277 25.9958 27.8027 25.437C28.1684 24.8783 28.5416 24.9749 29.0479 25.1587C29.5616 25.3424 32.3014 26.6921 32.8601 26.9714C33.4189 27.2508 33.7852 27.3891 33.9258 27.616C34.0702 27.8503 34.0703 28.9661 33.6072 30.2673C33.1441 31.5667 30.8699 32.8233 29.8499 32.9114C28.8205 33.007 27.8598 33.3741 23.1592 31.5234C17.4892 29.2903 13.9134 23.4829 13.634 23.1079C13.3547 22.7423 11.3635 20.0886 11.3635 17.3511C11.3635 14.6042 12.8037 13.2589 13.3081 12.7002C13.8219 12.1414 14.4236 12.0044 14.7986 12.0044Z" fill="white"/>
</svg>
