<svg width="45" height="45" viewBox="0 0 45 45" fill="none" xmlns="http://www.w3.org/2000/svg">
<g id="telegram-01 1" clip-path="url(#clip0_376_251)">
<g id="Clip path group">
<mask id="mask0_376_251" style="mask-type:luminance" maskUnits="userSpaceOnUse" x="0" y="-1" width="45" height="46">
<g id="clip-path">
<path id="Vector" d="M45 -0.0600586H0V44.9399H45V-0.0600586Z" fill="white"/>
</g>
</mask>
<g mask="url(#mask0_376_251)">
<g id="Group">
<path id="Vector_2" d="M22.5 -0.0600586C18.0499 -0.0600586 13.6998 1.25954 9.99968 3.73188C6.29957 6.20421 3.41569 9.71823 1.71272 13.8296C0.00974894 17.9409 -0.435826 22.4649 0.432341 26.8295C1.30051 31.194 3.44343 35.2032 6.59011 38.3498C9.73679 41.4965 13.7459 43.6394 18.1105 44.5076C22.475 45.3758 26.999 44.9302 31.1104 43.2272C35.2217 41.5243 38.7357 38.6404 41.2081 34.9403C43.6804 31.2402 45 26.89 45 22.4399C45 16.4726 42.6295 10.7496 38.4099 6.53004C34.1903 2.31047 28.4674 -0.0600586 22.5 -0.0600586ZM31.87 15.9399C31.47 18.3499 30.33 26.2899 29.42 31.2399C28.88 34.1799 27.66 34.5199 25.76 33.2399C24.84 32.6299 20.21 29.5399 19.21 28.8199C18.21 28.0999 17.03 27.3599 18.61 25.8199L25.76 18.9199C25.8346 18.8454 25.8793 18.7461 25.8855 18.6408C25.8916 18.5355 25.8589 18.4316 25.7934 18.3489C25.728 18.2662 25.6344 18.2104 25.5306 18.1921C25.4267 18.1739 25.3197 18.1945 25.23 18.2499C21.34 20.8499 15.95 24.4599 15.23 24.9299C14.6887 25.3314 14.0546 25.5896 13.3868 25.6805C12.719 25.7714 12.039 25.6921 11.41 25.4499C10.06 25.0499 8.75001 24.5899 8.23001 24.4499C6.23001 23.7699 6.73001 22.8799 8.64001 22.0299C16.34 18.6099 26.29 14.4499 27.64 13.8699C31.31 12.3099 32.42 12.5899 31.87 15.9299V15.9399Z" fill="white"/>
</g>
</g>
</g>
</g>
<defs>
<clipPath id="clip0_376_251">
<rect width="45" height="45" fill="white"/>
</clipPath>
</defs>
</svg>
