<svg width="45" height="45" viewBox="0 0 45 45" fill="none" xmlns="http://www.w3.org/2000/svg">
<g clip-path="url(#clip0_337_190)">
<path d="M38.2528 6.54201C36.1898 4.45985 33.733 2.80911 31.0255 1.68597C28.3181 0.562824 25.4142 -0.0102495 22.4831 0.000138742C10.2009 0.000138742 0.19125 10.007 0.18 22.292C0.18 26.2267 1.20938 30.0545 3.15281 33.4436L0 45.0001L11.8237 41.9008C15.0947 43.6808 18.7592 44.6139 22.4831 44.6148H22.4944C34.7794 44.6148 44.7863 34.608 44.7975 22.3117C44.8003 19.3812 44.2232 16.4791 43.0995 13.7726C41.9758 11.0661 40.3304 8.60873 38.2528 6.54201ZM22.4831 40.8405C19.1616 40.8416 15.901 39.9477 13.0444 38.253L12.3694 37.848L5.355 39.6873L7.22812 32.8445L6.78938 32.1386C4.93258 29.1864 3.95057 25.7683 3.95719 22.2808C3.95719 12.0826 12.2738 3.76326 22.4944 3.76326C24.9293 3.7589 27.3409 4.23654 29.5904 5.16865C31.8398 6.10076 33.8825 7.4689 35.6006 9.1942C37.3248 10.9128 38.6916 12.9557 39.6223 15.2052C40.553 17.4546 41.0291 19.8661 41.0231 22.3005C41.0119 32.5351 32.6953 40.8405 22.4831 40.8405ZM32.6503 26.9636C32.0963 26.6851 29.3597 25.338 28.845 25.1467C28.3331 24.9639 27.9591 24.8683 27.5934 25.4251C27.2194 25.9792 26.1506 27.242 25.83 27.6048C25.5094 27.9789 25.1775 28.0211 24.6206 27.7455C24.0666 27.4642 22.2694 26.8792 20.1431 24.9751C18.4838 23.4986 17.3728 21.6705 17.0409 21.1164C16.7203 20.5595 17.01 20.2614 17.2884 19.983C17.5331 19.7355 17.8425 19.3305 18.1209 19.0098C18.4022 18.6892 18.495 18.453 18.6778 18.0817C18.8606 17.7048 18.7734 17.3842 18.6356 17.1058C18.495 16.8273 17.3841 14.0795 16.9144 12.9714C16.4644 11.8773 16.0059 12.0292 15.6628 12.0151C15.3422 11.9955 14.9681 11.9955 14.5941 11.9955C14.3116 12.0025 14.0336 12.0678 13.7776 12.1874C13.5215 12.3069 13.293 12.4781 13.1062 12.6901C12.5944 13.247 11.1628 14.5942 11.1628 17.342C11.1628 20.0898 13.1597 22.7308 13.4409 23.1048C13.7166 23.4789 17.3616 29.1011 22.9556 31.5198C24.2775 32.0964 25.3181 32.4367 26.1309 32.6955C27.4669 33.123 28.6734 33.0583 29.6353 32.9205C30.7041 32.7573 32.9288 31.5705 33.3984 30.2683C33.8597 28.9633 33.8597 27.8495 33.7191 27.6161C33.5813 27.3798 33.2072 27.242 32.6503 26.9636Z" fill="white"/>
</g>
<defs>
<clipPath id="clip0_337_190">
<rect width="45" height="45" fill="white"/>
</clipPath>
</defs>
</svg>
