<svg width="46" height="45" viewBox="0 0 46 45" fill="none" xmlns="http://www.w3.org/2000/svg">
<g id="Group">
<path id="Ellipse" d="M44.4905 22.5C44.4905 34.3639 34.7651 44 22.7453 44C10.7254 44 1 34.3639 1 22.5C1 10.6361 10.7254 1 22.7453 1C34.7651 1 44.4905 10.6361 44.4905 22.5Z" fill="white" stroke="white" stroke-width="2"/>
<g id="Group_2">
<path id="Vector" d="M39.6959 27.0659C39.6959 28.33 39.2414 29.3805 38.3132 30.2173C37.385 31.0541 36.2931 31.4813 34.9467 31.4813H28.1953V16.0452H34.4552C35.7474 16.0452 36.8388 16.4725 37.7306 17.2737C38.6409 18.0926 39.0775 19.1075 39.0775 20.3181C39.0775 21.6713 38.5313 22.7039 37.4762 23.4695C38.8589 24.1817 39.6959 25.4635 39.6959 27.0659ZM30.7974 18.4309V22.4903H34.4731C35.6199 22.4903 36.4932 21.6001 36.4932 20.4606C36.4932 19.3211 35.6199 18.4309 34.4731 18.4309H30.7974ZM34.9646 29.0956C36.1656 29.0956 37.1122 28.152 37.1122 26.9413C37.1122 25.7306 36.1656 24.787 34.9646 24.787H30.7974V29.1134H34.9646V29.0956Z" fill="#D94692"/>
<path id="Vector_2" d="M9.35068 31.4925L5.125 16.0463H7.89692L11.1437 27.9098L14.6233 16.0453L17.2072 16.0463L20.699 27.9728L23.9604 16.0492L26.7322 16.0453L22.5047 31.4898L19.2918 31.4865L15.9163 19.9515L12.5377 31.4895L9.35068 31.4925Z" fill="#D94692"/>
</g>
</g>
</svg>
